<svg id="圖層_1" data-name="圖層 1" xmlns="http://www.w3.org/2000/svg" viewBox="0 0 595.28 308.54"><defs><style>.cls-1{fill:'current';}.cls-2{fill:'current';}.cls-1{fill:'current';}.cls-3{fill:'current';}.cls-4{fill:'current';}</style></defs><path class="cls-1" d="M431.63,154.45h-8.26V142.7H417.6v29.36h5.77V158.93h8.26v13.13h5.77V142.7h-5.77ZM569.2,142.7v4.48H577v24.88h5.77V147.18h7.83V142.7Zm-30.44,0H533v29.36h16.49v-4.49H538.75V142.7Zm-66,24.47c-.08.31-.29.39-.6.39a.59.59,0,0,1-.61-.4l-6.07-24.45h-6.72l7,26.77a2.86,2.86,0,0,0,3,2.58h5.32a2.86,2.86,0,0,0,3-2.54l6.81-26.81h-5.09l-6,24.46ZM398.2,147.29v20.18c0,3.26,1.58,4.59,4.31,4.59h12.89v-4.49h-9.32c-1.6,0-2.11-.42-2.11-2.25v-15.9c0-1.76.39-2.24,2.11-2.24h9.32v-4.47H402.51c-2.95,0-4.31,1.61-4.31,4.58Zm48.42,18v-6.39h11.46v-4.48H446.63v-5c0-1.7.36-2.24,2.11-2.24h9.47v-4.47h-13c-3,0-4.31,1.58-4.31,4.58v20.18c0,3.1,1.42,4.59,4.31,4.59h14.24v-4.49H448.74C447.14,167.57,446.62,167.19,446.62,165.32Zm54.06-5.67c2.67,0,4.31-1.29,4.31-4.59v-7.77c0-3.07-1.36-4.58-4.3-4.58H484.61v29.35h5.76V147.18h6.74c1.78,0,2.11.54,2.11,2.24V153c0,1.73-.45,2.25-2.12,2.25H494a1.82,1.82,0,0,0-1.91,2.05,3.23,3.23,0,0,0,.55,1.55l7.28,13.21H507l-7.62-12.4Zm24.51-16.94H512.48c-3,0-4.3,1.64-4.3,4.58v20.18c0,3.33,1.67,4.59,4.31,4.59h12.71c2.76,0,4.31-1.39,4.31-4.59V147.29c0-3-1.33-4.58-4.31-4.58Zm-3.56,24.86H516c-1.66,0-2.11-.48-2.11-2.25v-15.9c0-1.53.2-2.24,2.11-2.24h5.59c1.5,0,2.1.28,2.1,2.24v15.9c0,1.9-.55,2.25-2.11,2.25Zm34.73-2.25v-6.39h11.45v-4.48H556.37v-5c0-1.7.36-2.24,2.11-2.24h9.46v-4.47h-13c-3,0-4.32,1.58-4.32,4.58v20.18c0,3.1,1.42,4.59,4.31,4.59h14.24v-4.49H558.48C556.88,167.57,556.36,167.19,556.36,165.32ZM544.87,89.4H514.16c-.78,0-1.3-.24-1.3-1.39V83.17c0-1.39-.7-2.13-2-2.13H475.72a1.86,1.86,0,0,0-2,2.12V88c0,1-.45,1.39-1.3,1.39H452.31a3,3,0,0,0-2.91,1.8l-9.79,20.35a2,2,0,0,0-.2.86,1.76,1.76,0,0,0,1.86,1.85h31.16c1,0,1.3.46,1.3,1.39v4.84a1.86,1.86,0,0,0,2,2.12h35.15a1.83,1.83,0,0,0,2-2.11v-4.84c0-1,.39-1.39,1.3-1.39h19.53a2.92,2.92,0,0,0,3-1.71l9.69-20.1a2.41,2.41,0,0,0,.36-1.2,1.79,1.79,0,0,0-1.86-1.85Zm-7.74,8.11-4.67,9.7a1.17,1.17,0,0,1-1.18.59H508.1c-1,0-1.31.46-1.31,1.39v5.58c0,.93-.38,1.37-1.31,1.37H481.12c-.81,0-1.31-.31-1.31-1.39v-5.58c0-1-.44-1.39-1.32-1.39H450.07a1.11,1.11,0,0,1-1.18-1.12,1.32,1.32,0,0,1,.12-.52l4.67-9.7a1.15,1.15,0,0,1,1.18-.58h23.63c.82,0,1.33-.35,1.33-1.4V88.89c0-1,.41-1.39,1.31-1.39h24.35c.88,0,1.31.41,1.31,1.4v5.58c0,1,.42,1.39,1.32,1.39h28A1.07,1.07,0,0,1,537.25,97a1.21,1.21,0,0,1-.12.53Z"/><path class="cls-2" d="M269.31,56.48a62,62,0,0,0-19.8,4.77,62.74,62.74,0,0,0-22.86,16c-5.72,6.1-8.8,10.73-12.77,19.15-2.6,5.56-3.32,6-11.46,6.84-3.31.33-3.35.35-3.27,1.57l.06,1,9,.06c7.94,0,9,0,9-.27a2,2,0,0,1,.18-.68c.09-.19.46-1.14.81-2.11s1.07-2.67,1.58-3.78.93-2,.93-2.11S222.83,93,224,91.15a78.63,78.63,0,0,1,5.78-7.8q1.72-2,3.62-3.78c1.79-1.69,2.12-2,2.92-2.65l1.05-.88c.49-.46,4.89-3.58,6.15-4.37a98.31,98.31,0,0,1,9-4.53,58.34,58.34,0,0,1,21.25-4.07,62.18,62.18,0,0,1,10.38.95l2.82.6a36.29,36.29,0,0,1,5.29,1.55,1.6,1.6,0,0,0,.66.21c.68,0,6.76,2.81,9.46,4.4a60.18,60.18,0,0,1,19.6,18.14c.42.62.85,1.22.93,1.34,1.34,1.78,5.31,9.37,5.31,10.15,0,.17.08.29.16.29s.27.35.41.77.31,1,.41,1.2a19.87,19.87,0,0,1,1,2.91c0,.23,1.46.29,9,.25l9-.06.06-1.08.06-1-.74-.13c-.41-.06-2-.27-3.66-.45-7.08-.79-7.82-1.28-10.47-7a58.14,58.14,0,0,0-4-7.59,18.91,18.91,0,0,1-1.19-2.06.3.3,0,0,0-.15-.27,20.09,20.09,0,0,1-1.56-2c-.78-1.07-1.61-2.25-1.89-2.58l-1.11-1.35a70.88,70.88,0,0,0-6.87-7.13c-.52-.46-1.05-.93-1.16-1.06a66.72,66.72,0,0,0-5.32-4.11,57.32,57.32,0,0,0-6.26-3.82,63,63,0,0,0-26.47-7.65A46.83,46.83,0,0,0,269.31,56.48ZM194.56,117c-.16.17-.16,18.55,0,19,.1.25.52.31,2,.31h1.93l.14-1c.07-.54.07-3.72,0-7.09s-.08-6.18,0-6.24,3.13,3.14,6.83,7.11l6.75,7.21h5.18V116.83h-4.09v14.58l-6.75-7.3-6.78-7.28h-2.55A14,14,0,0,0,194.56,117Zm31.87.13c0,.14-.05,4.48,0,9.65l0,9.41,2,.06,2,.06V116.83H228.5C227.08,116.83,226.51,116.91,226.43,117.1Zm15.2.22a6.8,6.8,0,0,0-2.72,2.82c-.62,1.26-.41,4.48.33,5.48a9,9,0,0,1,.56.78,4.75,4.75,0,0,0,3,1.76,60.14,60.14,0,0,0,7.36.25c6.32,0,6.75,0,7.29.8a2.36,2.36,0,0,1-.21,2.44l-.47.58-8.83.11-8.82.1v3.72h9.54c8.89,0,9.57,0,10.2-.37a6,6,0,0,0,2.93-4.59,6.18,6.18,0,0,0-2.62-6.1l-.78-.52-7.3-.1c-8-.1-8-.1-8.37-1.37a1.75,1.75,0,0,1,0-1.13c.39-1.14.2-1.12,9.34-1.22l8.49-.11.06-1.92.06-1.9-9,0C242.66,116.85,242.61,116.85,241.63,117.32Zm31.2-.18a5.07,5.07,0,0,0-3.45,3.51A6.18,6.18,0,0,0,271,127c1.54,1.3,2.12,1.39,9.57,1.39h6.66l.52.51a2.25,2.25,0,0,1,.39,2.28c-.25,1-.37,1-9.71,1.14l-8.75.1-.06,1.9-.06,1.92h9.24c8.76,0,9.3,0,10.3-.41a5.43,5.43,0,0,0,3.25-4.55,6.5,6.5,0,0,0-1.44-5.23c-1.33-1.51-1.15-1.47-9.36-1.61-4.07-.06-7.42-.15-7.44-.15a2.2,2.2,0,0,1-.43-3c.39-.46.41-.46,9-.52l8.54-.06v-3.91l-8.7,0C276,116.87,273.51,116.93,272.83,117.14Zm35.06.87c-.36.66-1,1.73-1.4,2.37a9.44,9.44,0,0,0-.74,1.33,1,1,0,0,1-.27.47,4.7,4.7,0,0,0-.54.85c-.14.29-1,1.82-2,3.41s-1.83,3.08-1.94,3.29-.86,1.45-1.62,2.69a21,21,0,0,0-2,3.74,13.16,13.16,0,0,0,2.33.1h2.34l1.07-1.75,1.07-1.76h13.21l.35.5c.2.26.68,1.05,1.09,1.75l.72,1.26h2.34a6.27,6.27,0,0,0,2.33-.2c0-.23-10.06-17.41-11-18.78-.3-.43-.45-.45-2.49-.45h-2.2Zm3.8,4.65c.43.7.88,1.47,1,1.72.24.49.64,1.17,1.77,3.06a4.42,4.42,0,0,1,.74,1.59c-.15.27-8.6.27-8.75,0a4.87,4.87,0,0,1,.77-1.66,10.25,10.25,0,0,0,.88-1.63.34.34,0,0,1,.16-.29,24.13,24.13,0,0,0,2.16-3.51,1.65,1.65,0,0,1,.4-.58A7.53,7.53,0,0,1,311.69,122.66Zm18.19,3.89v9.71H334v-7.15a62.84,62.84,0,0,1,.18-7.07c.27.1,1.32,1.18,7.68,8l5.84,6.24,2.53-.06,2.55-.06V116.93l-2-.06-2-.06v7c0,3.86-.08,7.07-.17,7.13a22.35,22.35,0,0,1-3-2.94c-1.56-1.67-4.55-4.87-6.64-7.13l-3.81-4.07h-5.26ZM199.25,147.37a3,3,0,0,0,.08,2,14.92,14.92,0,0,0,2.49.42c6.71.8,7.06.89,8.48,1.78s2.18,2.12,3.89,5.74a57.92,57.92,0,0,0,3,5.9A70.24,70.24,0,0,0,234,182.76c1.68,1.31,3.74,2.8,6.08,4.33,1,.62,6.38,3.55,6.59,3.55a9.47,9.47,0,0,1,1.13.5,61.89,61.89,0,0,0,22.87,5.54,50.89,50.89,0,0,0,7,0,86.45,86.45,0,0,0,8.9-1.26c.42-.11,1.22-.29,1.75-.4s1.63-.41,2.43-.66,1.73-.51,2-.62c.92-.27,3.66-1.22,4.09-1.42l1-.44c.31-.14.74-.33.92-.43a1.42,1.42,0,0,1,.52-.19,26.7,26.7,0,0,0,2.61-1.24,23.31,23.31,0,0,1,2.65-1.24.22.22,0,0,0,.21-.21.18.18,0,0,1,.17-.2h0c.64,0,7.35-4.7,10.21-7.14a67.9,67.9,0,0,0,11.44-12.55c.51-.74,1.06-1.51,1.21-1.69a1.1,1.1,0,0,0,.29-.42s.41-.72.92-1.5a57,57,0,0,0,3.95-7.41c2.1-4.46,2.55-5.14,4.09-6s1.77-1,7.88-1.7c3.5-.39,3.23-.27,3.17-1.51l-.06-1.07-8.95-.07-9,0-.26,1a11.75,11.75,0,0,1-.42,1.31c-.14.35-.35.86-.9,2.27a70.35,70.35,0,0,1-5.14,10.13c-.64,1-3.32,4.84-3.46,5s-.64.75-1.27,1.55c-1.77,2.22-6.14,6.72-6.55,6.72a.3.3,0,0,0-.22.17,30.86,30.86,0,0,1-2.68,2.38c-.68.58-2.73,2-4,2.83a57,57,0,0,1-15.36,7.15,49.44,49.44,0,0,1-16.17,2.24,50.52,50.52,0,0,1-16.44-2.26,51.07,51.07,0,0,1-7-2.6,1.44,1.44,0,0,0-.58-.29c-1.44-.48-8.93-4.82-9.11-5.31a.31.31,0,0,0-.27-.17,27.81,27.81,0,0,1-4.09-3.14,10.26,10.26,0,0,0-1.2-1c-.14,0-2.94-2.79-4.46-4.44a73.63,73.63,0,0,1-5.49-7c-.52-.81-1-1.49-1.07-1.55a5.69,5.69,0,0,1-.33-.52c-.14-.23-.74-1.28-1.34-2.33-1.93-3.4-5.14-10.74-5.14-11.77,0-.21-1.89-.27-8.91-.27C203.39,147.22,199.31,147.28,199.25,147.37Z"/><path class="cls-3" d="M65,65.42A174.92,174.92,0,0,0,.88,78a62.59,62.59,0,0,0,3.59,7.46A147.27,147.27,0,0,1,65,73.22v0a147,147,0,0,1,60.54,12.18A49.11,49.11,0,0,0,129.15,78,175.12,175.12,0,0,0,65,65.42Z"/><path class="cls-3" d="M47,92.32,65,193.69,83,92.35c17.1,0,22.49,1.87,23.27,9.56,0,0,11.49-4.28,17.27-13a126.84,126.84,0,0,0-45.28-11L65,94.08h0L51.79,77.93a126.51,126.51,0,0,0-45.27,11c5.79,8.74,17.26,13,17.26,13C24.56,94.22,30,92.32,47,92.32Z"/><path class="cls-4" d="M18.14,255.34v-4.06L36,223H39v6.29H37L23.47,250.64V251h24.1v4.38Zm19.17,8.35V223H42v40.73Z"/><path class="cls-4" d="M56.32,263.69l18.21-36v-.32h-21V223H79.62v4.62L61.49,263.69Z"/><path class="cls-4" d="M83.52,264a3.62,3.62,0,0,1-3.58-3.58,3.58,3.58,0,0,1,7.16,0,3.4,3.4,0,0,1-.49,1.79,3.65,3.65,0,0,1-1.29,1.3A3.47,3.47,0,0,1,83.52,264Z"/><path class="cls-4" d="M107.39,264.25a14,14,0,0,1-6.31-1.4A11.62,11.62,0,0,1,96.59,259a10.33,10.33,0,0,1-1.85-5.53h4.77a6.49,6.49,0,0,0,2.52,4.56,8.27,8.27,0,0,0,5.36,1.8,8.53,8.53,0,0,0,4.46-1.17,8.32,8.32,0,0,0,3.08-3.23,10.24,10.24,0,0,0,0-9.43,8.67,8.67,0,0,0-3.19-3.31,8.94,8.94,0,0,0-4.63-1.23,12.71,12.71,0,0,0-3.84.56,11.09,11.09,0,0,0-3.24,1.5L95.37,243l2.47-20H119v4.38H102l-1.44,12h.24a10.85,10.85,0,0,1,3.15-1.65,11.79,11.79,0,0,1,3.93-.66,12.53,12.53,0,0,1,11.29,6.64,14.51,14.51,0,0,1,1.68,7,13.77,13.77,0,0,1-1.74,7,12.86,12.86,0,0,1-4.78,4.82A13.62,13.62,0,0,1,107.39,264.25Z"/><path class="cls-4" d="M129.18,232.75V230.6a9.13,9.13,0,0,1,.92-4.09,7.34,7.34,0,0,1,2.71-3,8.93,8.93,0,0,1,8.66,0,7.1,7.1,0,0,1,2.64,3,9.25,9.25,0,0,1,.9,4.09v2.15a9.11,9.11,0,0,1-.91,4.08,7.24,7.24,0,0,1-2.66,3,7.83,7.83,0,0,1-4.31,1.12,8,8,0,0,1-4.35-1.12,7.32,7.32,0,0,1-2.69-3A9.11,9.11,0,0,1,129.18,232.75Zm1.51,30.94,28-40.73h4.54l-28,40.73Zm2.55-33.09v2.15a6.37,6.37,0,0,0,.87,3.31,3.23,3.23,0,0,0,3,1.46,3.16,3.16,0,0,0,3-1.46,6.46,6.46,0,0,0,.86-3.31V230.6a6.61,6.61,0,0,0-.83-3.31,3.13,3.13,0,0,0-3-1.46,3.23,3.23,0,0,0-3,1.46A6.18,6.18,0,0,0,133.24,230.6Zm16.22,25.45v-2.14a9,9,0,0,1,.93-4.09,7.32,7.32,0,0,1,2.7-3,8,8,0,0,1,4.33-1.13,7.84,7.84,0,0,1,4.33,1.13,7.13,7.13,0,0,1,2.65,3,9.25,9.25,0,0,1,.89,4.09v2.14a9.25,9.25,0,0,1-.9,4.09,7.17,7.17,0,0,1-2.67,3,7.8,7.8,0,0,1-4.3,1.13,8,8,0,0,1-4.36-1.13,7.27,7.27,0,0,1-2.68-3A9.13,9.13,0,0,1,149.46,256.05Zm4.06-2.14v2.14a6.23,6.23,0,0,0,.88,3.31,3.22,3.22,0,0,0,3,1.47,3.15,3.15,0,0,0,3-1.47,6.32,6.32,0,0,0,.87-3.31v-2.14a6.55,6.55,0,0,0-.84-3.32,3.15,3.15,0,0,0-3-1.46,3.25,3.25,0,0,0-3,1.46A6.13,6.13,0,0,0,153.52,253.91Z"/><path class="cls-4" d="M237.92,223v40.73H233V228.13h-.24l-9.94,6.61v-5L233,223Z"/><path class="cls-4" d="M263.14,264.25a15.33,15.33,0,0,1-5-1,12,12,0,0,1-4.58-3.09,15.73,15.73,0,0,1-3.32-5.91,30,30,0,0,1-1.25-9.37,41.72,41.72,0,0,1,1-9.64,22,22,0,0,1,2.95-7.09,13.17,13.17,0,0,1,4.66-4.37,12.6,12.6,0,0,1,6.17-1.49,13.11,13.11,0,0,1,6.1,1.37,11.63,11.63,0,0,1,4.36,3.81,13.24,13.24,0,0,1,2.19,5.63h-4.85a9,9,0,0,0-2.63-4.62,7.26,7.26,0,0,0-5.17-1.82,8.47,8.47,0,0,0-7.44,4.13q-2.71,4.13-2.74,11.62h.32A11.87,11.87,0,0,1,260,237.7a11.74,11.74,0,0,1,3.95-.66,12.24,12.24,0,0,1,6.41,1.74,13.12,13.12,0,0,1,4.65,4.79,13.79,13.79,0,0,1,1.75,7,14.25,14.25,0,0,1-1.69,6.91,12.89,12.89,0,0,1-4.74,5A13.51,13.51,0,0,1,263.14,264.25Zm0-4.38a8.33,8.33,0,0,0,4.5-1.25,9.11,9.11,0,0,0,3.16-3.36,10,10,0,0,0,0-9.3,8.76,8.76,0,0,0-3.08-3.31,8.19,8.19,0,0,0-4.46-1.23,8.44,8.44,0,0,0-3.52.74,9.23,9.23,0,0,0-2.86,2,10,10,0,0,0-1.92,3,9,9,0,0,0-.69,3.49,9.41,9.41,0,0,0,1.14,4.54,9.24,9.24,0,0,0,3.14,3.4A8.23,8.23,0,0,0,263.14,259.87Z"/><path class="cls-4" d="M286.13,264a3.6,3.6,0,0,1-3.58-3.58,3.58,3.58,0,0,1,3.58-3.58,3.44,3.44,0,0,1,2.52,1,3.54,3.54,0,0,1,.57,4.32,3.82,3.82,0,0,1-1.29,1.3A3.47,3.47,0,0,1,286.13,264Z"/><path class="cls-4" d="M298.06,263.69v-3.58l13.44-14.72q2.37-2.58,3.9-4.5a16.46,16.46,0,0,0,2.27-3.62,8.73,8.73,0,0,0,.75-3.57,6.69,6.69,0,0,0-1-3.72,6.81,6.81,0,0,0-2.8-2.42,9,9,0,0,0-4-.86,8.21,8.21,0,0,0-4.08,1,6.7,6.7,0,0,0-2.69,2.69,8.34,8.34,0,0,0-.94,4.06h-4.69a11.85,11.85,0,0,1,1.65-6.29,11.41,11.41,0,0,1,4.5-4.21,13.45,13.45,0,0,1,6.41-1.51,13,13,0,0,1,6.35,1.51,11.25,11.25,0,0,1,4.33,4.07A10.71,10.71,0,0,1,323,233.7a12.31,12.31,0,0,1-.8,4.39,19.75,19.75,0,0,1-2.79,4.75c-1.32,1.74-3.14,3.87-5.47,6.37L304.82,259v.31h18.93v4.38Z"/><path class="cls-4" d="M332.42,232.75V230.6a9.13,9.13,0,0,1,.92-4.09,7.34,7.34,0,0,1,2.71-3,8,8,0,0,1,4.33-1.12,7.86,7.86,0,0,1,4.33,1.12,7.1,7.1,0,0,1,2.64,3,9.25,9.25,0,0,1,.9,4.09v2.15a9.11,9.11,0,0,1-.91,4.08,7.24,7.24,0,0,1-2.66,3,7.82,7.82,0,0,1-4.3,1.12,8,8,0,0,1-4.36-1.12,7.32,7.32,0,0,1-2.69-3A9.11,9.11,0,0,1,332.42,232.75Zm1.51,30.94,28-40.73h4.54l-28,40.73Zm2.55-33.09v2.15a6.37,6.37,0,0,0,.87,3.31,3.24,3.24,0,0,0,3,1.46,3.16,3.16,0,0,0,2.95-1.46,6.46,6.46,0,0,0,.86-3.31V230.6a6.61,6.61,0,0,0-.83-3.31,3.13,3.13,0,0,0-3-1.46,3.23,3.23,0,0,0-3,1.46A6.18,6.18,0,0,0,336.48,230.6Zm16.22,25.45v-2.14a9,9,0,0,1,.93-4.09,7.32,7.32,0,0,1,2.7-3,8,8,0,0,1,4.33-1.13,7.84,7.84,0,0,1,4.33,1.13,7.13,7.13,0,0,1,2.65,3,9.25,9.25,0,0,1,.89,4.09v2.14a9.25,9.25,0,0,1-.9,4.09,7.17,7.17,0,0,1-2.67,3,7.8,7.8,0,0,1-4.3,1.13,8,8,0,0,1-4.36-1.13,7.27,7.27,0,0,1-2.68-3A9.13,9.13,0,0,1,352.7,256.05Zm4.06-2.14v2.14a6.23,6.23,0,0,0,.88,3.31,3.22,3.22,0,0,0,3,1.47,3.14,3.14,0,0,0,2.95-1.47,6.32,6.32,0,0,0,.87-3.31v-2.14a6.55,6.55,0,0,0-.84-3.32,3.15,3.15,0,0,0-3-1.46,3.25,3.25,0,0,0-3,1.46A6.13,6.13,0,0,0,356.76,253.91Z"/><path class="cls-4" d="M452.4,223v40.73h-4.93V228.13h-.24l-9.94,6.61v-5L447.47,223Z"/><path class="cls-4" d="M476.82,264.25a14,14,0,0,1-6.31-1.4A11.69,11.69,0,0,1,466,259a10.42,10.42,0,0,1-1.85-5.53h4.77a6.52,6.52,0,0,0,2.52,4.56,8.28,8.28,0,0,0,5.36,1.8,8.51,8.51,0,0,0,4.46-1.17,8.35,8.35,0,0,0,3.09-3.23,10.32,10.32,0,0,0,0-9.43,8.7,8.7,0,0,0-3.2-3.31,8.92,8.92,0,0,0-4.63-1.23,12.71,12.71,0,0,0-3.84.56,11.09,11.09,0,0,0-3.24,1.5l-4.61-.55,2.46-20h21.16v4.38h-17l-1.43,12h.24a10.66,10.66,0,0,1,3.14-1.65,11.83,11.83,0,0,1,3.93-.66,12.5,12.5,0,0,1,11.29,6.64,14.51,14.51,0,0,1,1.68,7,13.77,13.77,0,0,1-1.74,7,12.79,12.79,0,0,1-4.78,4.82A13.62,13.62,0,0,1,476.82,264.25Z"/><path class="cls-4" d="M500.12,264A3.41,3.41,0,0,1,497.6,263a3.45,3.45,0,0,1-1.06-2.52,3.48,3.48,0,0,1,1.06-2.53,3.56,3.56,0,0,1,5,0,3.54,3.54,0,0,1,.57,4.32,3.76,3.76,0,0,1-1.3,1.3A3.42,3.42,0,0,1,500.12,264Z"/><path class="cls-4" d="M521.52,223v40.73h-4.93V228.13h-.24l-9.94,6.61v-5L516.59,223Z"/><path class="cls-4" d="M533.69,232.75V230.6a9,9,0,0,1,.93-4.09,7.25,7.25,0,0,1,2.7-3,8,8,0,0,1,4.33-1.12,7.83,7.83,0,0,1,4.33,1.12,7.19,7.19,0,0,1,2.65,3,9.39,9.39,0,0,1,.89,4.09v2.15a9.24,9.24,0,0,1-.9,4.08,7.34,7.34,0,0,1-2.67,3,7.82,7.82,0,0,1-4.3,1.12,8,8,0,0,1-4.36-1.12,7.29,7.29,0,0,1-2.68-3A9.12,9.12,0,0,1,533.69,232.75Zm1.51,30.94,28-40.73h4.54l-28,40.73Zm2.55-33.09v2.15a6.37,6.37,0,0,0,.87,3.31,3.25,3.25,0,0,0,3,1.46,3.16,3.16,0,0,0,3-1.46,6.36,6.36,0,0,0,.86-3.31V230.6a6.51,6.51,0,0,0-.83-3.31,3.13,3.13,0,0,0-3-1.46,3.24,3.24,0,0,0-3,1.46A6.18,6.18,0,0,0,537.75,230.6ZM554,256.05v-2.14a9.13,9.13,0,0,1,.92-4.09,7.28,7.28,0,0,1,2.71-3,8.86,8.86,0,0,1,8.66,0,7.18,7.18,0,0,1,2.64,3,9.25,9.25,0,0,1,.9,4.09v2.14a9.26,9.26,0,0,1-.91,4.09,7.22,7.22,0,0,1-2.66,3,7.86,7.86,0,0,1-4.31,1.13,8,8,0,0,1-4.35-1.13,7.29,7.29,0,0,1-2.69-3A9.13,9.13,0,0,1,554,256.05Zm4-2.14v2.14a6.23,6.23,0,0,0,.88,3.31,3.22,3.22,0,0,0,3,1.47,3.14,3.14,0,0,0,3-1.47,6.32,6.32,0,0,0,.87-3.31v-2.14a6.55,6.55,0,0,0-.84-3.32,3.14,3.14,0,0,0-3-1.46,3.25,3.25,0,0,0-3,1.46A6.13,6.13,0,0,0,558,253.91Z"/></svg>