<svg fid="圖層_1" data-name="圖層 1" xmlns="http://www.w3.org/2000/svg" viewBox="0 0 595.28 434.93"><defs><style>.cls-1{fill:'current';}.cls-2{fill:'current';}</style></defs><path class="cls-1" d="M278.62,152.54a12.88,12.88,0,0,0-1.06-18.43L156.9,28.53a15,15,0,0,0-19.62.23L16.2,139.74a12.8,12.8,0,0,0-.58,18.4l3,3.16c5,5.24,13.18,5.87,18.17,1.39l9-8.1V273.22A13.17,13.17,0,0,0,59,286.39h47.2a13.17,13.17,0,0,0,13.17-13.17v-83h60.2v83c-.11,7.28,5.1,13.17,12.37,13.17h50a13.17,13.17,0,0,0,13.17-13.17v-117l5.58,4.9c3.08,2.7,9.54.53,14.44-4.85Z"/><path class="cls-1" d="M535.53,23.55a5.53,5.53,0,0,0-.9.11L352.34,70a4.63,4.63,0,0,0-3.59,4.43v168h66V174.62h59.55v67.92h66V28.07A4.65,4.65,0,0,0,535.53,23.55ZM396.24,152.29H373.75V129.78h22.51Zm0-39.74H373.75V90h22.51Zm39.68,39.74H413.4V129.78h22.52Zm0-39.74H413.4V90h22.52Zm39.72,39.74H453.12V129.78h22.52Zm0-39.79H453.12V90h22.52Zm39.67,39.75H492.8V129.73h22.51Zm0-39.75H492.8V90h22.51Z"/><path class="cls-1" d="M543.72,249.48H345.41a32.46,32.46,0,0,0-32.28,32.28,4.63,4.63,0,0,0,4.64,4.63H571.36a4.63,4.63,0,0,0,4.64-4.63A32.46,32.46,0,0,0,543.72,249.48Z"/><path class="cls-2" d="M377.28,325.29a23.84,23.84,0,0,1,8.12,1.55,19.76,19.76,0,0,1,7.41,5,25.35,25.35,0,0,1,5.39,9.55,48.52,48.52,0,0,1,2,15.2,66.7,66.7,0,0,1-1.66,15.62,36,36,0,0,1-4.77,11.48,21.48,21.48,0,0,1-7.54,7.1,20.58,20.58,0,0,1-10,2.41,21.36,21.36,0,0,1-9.88-2.21,19.06,19.06,0,0,1-7.09-6.15,21.21,21.21,0,0,1-3.53-9.17h7.87a14.39,14.39,0,0,0,4.23,7.49,11.84,11.84,0,0,0,8.4,2.95,13.79,13.79,0,0,0,12.07-6.67q4.43-6.68,4.43-18.85h-.52a20.3,20.3,0,0,1-4.28,4.67,19,19,0,0,1-5.51,3,19.31,19.31,0,0,1-6.45,1.06,19.89,19.89,0,0,1-10.39-2.82,21,21,0,0,1-7.54-7.76,22.49,22.49,0,0,1-2.82-11.33A23.22,23.22,0,0,1,358,336.28a20.74,20.74,0,0,1,7.67-8A21.65,21.65,0,0,1,377.28,325.29Zm0,7.09a13.48,13.48,0,0,0-7.3,2,14.66,14.66,0,0,0-5.12,5.45,16.29,16.29,0,0,0-.07,15.1,14,14,0,0,0,5,5.35,13.37,13.37,0,0,0,7.23,2,13.54,13.54,0,0,0,5.71-1.21,14.49,14.49,0,0,0,4.62-3.32,15.8,15.8,0,0,0,3.11-4.8,14.43,14.43,0,0,0,1.13-5.62,15.25,15.25,0,0,0-1.85-7.35,15,15,0,0,0-5.1-5.51A13.2,13.2,0,0,0,377.28,332.38Z"/><path class="cls-2" d="M416.21,392.85a5.83,5.83,0,1,1,5-2.9,6,6,0,0,1-2.09,2.11A5.58,5.58,0,0,1,416.21,392.85Z"/><path class="cls-2" d="M455.14,393.23a24.87,24.87,0,0,1-8.12-1.54,19.35,19.35,0,0,1-7.41-5,25.44,25.44,0,0,1-5.38-9.57,48.16,48.16,0,0,1-2-15.19,67.3,67.3,0,0,1,1.64-15.62,35.75,35.75,0,0,1,4.77-11.49,21.5,21.5,0,0,1,7.56-7.09,20.56,20.56,0,0,1,10-2.42,21.35,21.35,0,0,1,9.87,2.23,19.1,19.1,0,0,1,7.08,6.17,21.58,21.58,0,0,1,3.54,9.14h-7.86a14.76,14.76,0,0,0-4.25-7.5,11.82,11.82,0,0,0-8.38-2.95,13.72,13.72,0,0,0-12.07,6.69q-4.41,6.69-4.44,18.84h.52a19.25,19.25,0,0,1,9.83-7.7,19.21,19.21,0,0,1,6.41-1.07A19.83,19.83,0,0,1,466.81,352a21.07,21.07,0,0,1,7.54,7.77,22.37,22.37,0,0,1,2.84,11.33,23.18,23.18,0,0,1-2.74,11.2,20.83,20.83,0,0,1-7.69,8.06A21.66,21.66,0,0,1,455.14,393.23Zm0-7.09a13.37,13.37,0,0,0,7.3-2,14.69,14.69,0,0,0,5.13-5.45,16.25,16.25,0,0,0,.06-15.06,14.17,14.17,0,0,0-5-5.37,13.33,13.33,0,0,0-7.24-2,13.62,13.62,0,0,0-5.7,1.21,14.81,14.81,0,0,0-4.63,3.31,15.71,15.71,0,0,0-3.11,4.78,14.55,14.55,0,0,0-1.13,5.66,15.15,15.15,0,0,0,1.86,7.35,15,15,0,0,0,5.09,5.51A13.3,13.3,0,0,0,455.14,386.14Z"/><path class="cls-2" d="M490.6,342.18V338.7a14.63,14.63,0,0,1,1.49-6.62,11.9,11.9,0,0,1,4.39-4.84,12.9,12.9,0,0,1,7-1.82,12.77,12.77,0,0,1,7,1.82,11.73,11.73,0,0,1,4.29,4.84,15,15,0,0,1,1.45,6.62v3.48a14.85,14.85,0,0,1-1.47,6.62,11.67,11.67,0,0,1-4.32,4.84,12.71,12.71,0,0,1-7,1.82,12.93,12.93,0,0,1-7.06-1.82,11.81,11.81,0,0,1-4.35-4.84A14.72,14.72,0,0,1,490.6,342.18ZM493,392.33l45.38-66h7.35l-45.38,66Zm4.13-53.63v3.48a10.21,10.21,0,0,0,1.42,5.37c.94,1.58,2.58,2.37,4.9,2.37s3.85-.79,4.78-2.37a10.29,10.29,0,0,0,1.4-5.37V338.7a10.66,10.66,0,0,0-1.35-5.37Q507,331,503.49,331a5.26,5.26,0,0,0-4.85,2.36A10,10,0,0,0,497.17,338.7ZM523.47,380v-3.48a14.66,14.66,0,0,1,1.5-6.62,11.85,11.85,0,0,1,4.38-4.83,14.45,14.45,0,0,1,14,0,11.55,11.55,0,0,1,4.28,4.83,15,15,0,0,1,1.45,6.62V380a15.06,15.06,0,0,1-1.46,6.63,11.71,11.71,0,0,1-4.32,4.83,12.75,12.75,0,0,1-7,1.82,13,13,0,0,1-7.06-1.82,11.78,11.78,0,0,1-4.35-4.83A14.8,14.8,0,0,1,523.47,380Zm6.57-3.48V380a10.31,10.31,0,0,0,1.42,5.37q1.42,2.37,4.9,2.37a5.11,5.11,0,0,0,4.79-2.37,10.39,10.39,0,0,0,1.4-5.37v-3.48a10.55,10.55,0,0,0-1.36-5.36q-1.35-2.37-4.83-2.37a5.26,5.26,0,0,0-4.85,2.37A10,10,0,0,0,530,376.47Z"/><path class="cls-2" d="M56,325.29a23.84,23.84,0,0,1,8.12,1.55,19.76,19.76,0,0,1,7.41,5,25.35,25.35,0,0,1,5.39,9.55,48.52,48.52,0,0,1,2,15.2,66.7,66.7,0,0,1-1.66,15.62,36,36,0,0,1-4.77,11.48,21.48,21.48,0,0,1-7.54,7.1,20.58,20.58,0,0,1-10,2.41A21.36,21.36,0,0,1,45.06,391,19.06,19.06,0,0,1,38,384.87a21.21,21.21,0,0,1-3.53-9.17h7.87a14.39,14.39,0,0,0,4.23,7.49,11.84,11.84,0,0,0,8.4,2.95A13.79,13.79,0,0,0,67,379.47q4.42-6.68,4.43-18.85h-.52a20.3,20.3,0,0,1-4.28,4.67,19,19,0,0,1-5.51,3,19.31,19.31,0,0,1-6.45,1.06,19.89,19.89,0,0,1-10.39-2.82,21,21,0,0,1-7.54-7.76,22.49,22.49,0,0,1-2.82-11.33,23.22,23.22,0,0,1,2.72-11.19,20.74,20.74,0,0,1,7.67-8A21.65,21.65,0,0,1,56,325.29Zm0,7.09a13.48,13.48,0,0,0-7.3,2,14.66,14.66,0,0,0-5.12,5.45,16.29,16.29,0,0,0-.07,15.1,14,14,0,0,0,5,5.35,13.37,13.37,0,0,0,7.23,2,13.54,13.54,0,0,0,5.71-1.21A14.49,14.49,0,0,0,66,357.76a15.8,15.8,0,0,0,3.11-4.8,14.43,14.43,0,0,0,1.13-5.62A15.25,15.25,0,0,0,68.43,340a15,15,0,0,0-5.1-5.51A13.2,13.2,0,0,0,56,332.38Z"/><path class="cls-2" d="M114.75,326.33v66h-8V334.7h-.38L90.26,345.41v-8.13l16.5-10.95Z"/><path class="cls-2" d="M135.51,392.85a5.83,5.83,0,1,1,5-2.9,6.12,6.12,0,0,1-2.09,2.11A5.61,5.61,0,0,1,135.51,392.85Z"/><path class="cls-2" d="M153.3,378.79v-6.57l29-45.89h4.77v10.18h-3.22l-21.91,34.68v.51H201v7.09Zm31.07,13.54v-66H192v66Z"/><path class="cls-2" d="M213.89,342.18V338.7a14.63,14.63,0,0,1,1.5-6.62,11.94,11.94,0,0,1,4.38-4.84,14.45,14.45,0,0,1,14,0,11.63,11.63,0,0,1,4.28,4.84,15,15,0,0,1,1.45,6.62v3.48a15,15,0,0,1-1.46,6.62,11.74,11.74,0,0,1-4.32,4.84,12.75,12.75,0,0,1-7,1.82,13,13,0,0,1-7.06-1.82,11.81,11.81,0,0,1-4.35-4.84A14.72,14.72,0,0,1,213.89,342.18Zm2.45,50.15,45.38-66h7.34l-45.37,66Zm4.12-53.63v3.48a10.31,10.31,0,0,0,1.42,5.37q1.43,2.37,4.9,2.37a5.11,5.11,0,0,0,4.79-2.37,10.39,10.39,0,0,0,1.4-5.37V338.7a10.56,10.56,0,0,0-1.36-5.37q-1.35-2.35-4.83-2.36a5.27,5.27,0,0,0-4.85,2.36A10,10,0,0,0,220.46,338.7ZM246.76,380v-3.48a14.66,14.66,0,0,1,1.5-6.62,11.85,11.85,0,0,1,4.38-4.83,12.84,12.84,0,0,1,7-1.82,12.7,12.7,0,0,1,7,1.82,11.64,11.64,0,0,1,4.29,4.83,15.18,15.18,0,0,1,1.45,6.62V380a14.92,14.92,0,0,1-1.47,6.63,11.71,11.71,0,0,1-4.32,4.83,12.75,12.75,0,0,1-7,1.82,12.92,12.92,0,0,1-7-1.82,11.74,11.74,0,0,1-4.36-4.83A14.93,14.93,0,0,1,246.76,380Zm6.58-3.48V380a10.3,10.3,0,0,0,1.41,5.37q1.42,2.37,4.9,2.37t4.79-2.37a10.39,10.39,0,0,0,1.4-5.37v-3.48a10.64,10.64,0,0,0-1.35-5.36c-.9-1.58-2.52-2.37-4.84-2.37a5.27,5.27,0,0,0-4.85,2.37A10,10,0,0,0,253.34,376.47Z" /></svg>