<svg id="圖層_1" data-name="圖層 1" xmlns="http://www.w3.org/2000/svg" viewBox="0 0 595.28 308.54"><defs><style>.cls-1{fill:"current";}.cls-2{fill:#25282C;}</style></defs><path class="cls-1" d="M199.71,153.75H136.49A2.78,2.78,0,0,1,133.7,151a2.86,2.86,0,0,1,.12-.82l10.55-34.23a2.79,2.79,0,0,1,2.66-2h42.14a2.79,2.79,0,0,1,2.66,2l10.55,34.23a2.78,2.78,0,0,1-2.67,3.61Zm-59.45-5.58h55.68l-8.83-28.65h-38Z"/><path class="cls-1" d="M109,153.75h-8.23a2.79,2.79,0,0,1,0-5.58H109a2.79,2.79,0,0,1,0,5.58Z"/><path class="cls-1" d="M136.48,153.75H125.71a2.79,2.79,0,0,1,0-5.58h7l-8.83-28.65h-38l-8.82,28.65h7a2.79,2.79,0,0,1,0,5.58H73.27a2.8,2.8,0,0,1-2.8-2.79,3,3,0,0,1,.13-.84l10.56-34.21a2.79,2.79,0,0,1,2.67-2H126a2.79,2.79,0,0,1,2.66,2l10.55,34.23a2.78,2.78,0,0,1-1.83,3.49,2.63,2.63,0,0,1-.84.13Z"/><path class="cls-1" d="M73.26,153.75H10A2.79,2.79,0,0,1,7.24,151a2.87,2.87,0,0,1,.13-.82l10.54-34.23a2.79,2.79,0,0,1,2.67-2H62.71a2.79,2.79,0,0,1,2.67,2l10.55,34.23a2.8,2.8,0,0,1-1.85,3.49A2.86,2.86,0,0,1,73.26,153.75Zm-59.45-5.58H69.48l-8.82-28.65h-38Z"/><path class="cls-1" d="M104.87,119.52H41.65a2.79,2.79,0,0,1-2.79-2.79,2.86,2.86,0,0,1,.12-.82L49.53,81.68a2.78,2.78,0,0,1,2.66-2H94.33a2.78,2.78,0,0,1,2.66,2l10.55,34.23a2.78,2.78,0,0,1-2.67,3.61Zm-59.44-5.58H101.1L92.27,85.29h-38Z"/><path class="cls-1" d="M168.1,119.52H104.87a2.79,2.79,0,0,1-2.79-2.79,2.6,2.6,0,0,1,.13-.82l10.54-34.23a2.78,2.78,0,0,1,2.67-2h42.13a2.78,2.78,0,0,1,2.67,2l10.54,34.23a2.78,2.78,0,0,1-1.84,3.49A2.86,2.86,0,0,1,168.1,119.52Zm-59.45-5.58h55.67l-8.83-28.65h-38Z"/><path class="cls-1" d="M136.49,85.29H73.26a2.78,2.78,0,0,1-2.79-2.78,2.92,2.92,0,0,1,.12-.83L81.14,47.46a2.79,2.79,0,0,1,2.66-2h42.14a2.79,2.79,0,0,1,2.67,2l10.54,34.22a2.79,2.79,0,0,1-1.84,3.49A2.91,2.91,0,0,1,136.49,85.29ZM77,79.72h55.67l-8.83-28.65h-38Z"/><path class="cls-1" d="M317.25,154.8H254a2.8,2.8,0,0,1-2.67-3.61L261.91,117a2.79,2.79,0,0,1,2.66-2h42.14a2.79,2.79,0,0,1,2.66,2l10.55,34.23a2.78,2.78,0,0,1-1.85,3.48A2.51,2.51,0,0,1,317.25,154.8Zm-59.44-5.58h55.67l-8.83-28.65h-38Z"/><path class="cls-1" d="M380.48,154.8H317.25a2.77,2.77,0,0,1-2.66-3.61L325.13,117a2.79,2.79,0,0,1,2.67-2h42.13a2.79,2.79,0,0,1,2.67,2l10.54,34.23a2.78,2.78,0,0,1-1.84,3.48A2.56,2.56,0,0,1,380.48,154.8ZM321,149.22H376.7l-8.82-28.65h-38Z"/><path class="cls-1" d="M348.87,120.57H285.64a2.79,2.79,0,0,1-2.79-2.79A2.51,2.51,0,0,1,283,117l10.54-34.23a2.79,2.79,0,0,1,2.67-2h42.13a2.79,2.79,0,0,1,2.67,2L351.53,117a2.79,2.79,0,0,1-1.84,3.49A2.91,2.91,0,0,1,348.87,120.57ZM289.42,115h55.67l-8.83-28.65h-38Z"/><path class="cls-1" d="M545.31,151.61H482.08a2.77,2.77,0,0,1-2.66-3.61L490,113.77a2.79,2.79,0,0,1,2.67-2h42.13a2.79,2.79,0,0,1,2.67,2L548,148a2.79,2.79,0,0,1-1.85,3.48A2.56,2.56,0,0,1,545.31,151.61ZM485.86,146h55.67l-8.82-28.65h-38Z"/><path class="cls-2" d="M40.54,188.42V171h2.11v7.78H52V171h2.11v17.46H52v-7.81H42.65v7.81Z"/><path class="cls-2" d="M59.05,173.15a1.45,1.45,0,0,1-1-.4,1.32,1.32,0,0,1,0-1.93,1.48,1.48,0,0,1,2,0,1.32,1.32,0,0,1,0,1.93A1.45,1.45,0,0,1,59.05,173.15Zm-1,15.27V175.33h2v13.09Z"/><path class="cls-2" d="M69,193.6a7.44,7.44,0,0,1-2.5-.37,5.37,5.37,0,0,1-1.74-1A5.45,5.45,0,0,1,63.65,191l1.6-1.13c.19.24.42.51.7.82a3.51,3.51,0,0,0,1.14.81,4.49,4.49,0,0,0,1.91.35,4.29,4.29,0,0,0,2.62-.77,2.78,2.78,0,0,0,1-2.4V186h-.17c-.15.24-.35.53-.62.88a3.6,3.6,0,0,1-1.16.93,4.35,4.35,0,0,1-2,.4,5.45,5.45,0,0,1-2.84-.75,5.13,5.13,0,0,1-2-2.18,7.51,7.51,0,0,1-.73-3.47,8.14,8.14,0,0,1,.7-3.51,5.56,5.56,0,0,1,2-2.32,5.22,5.22,0,0,1,2.92-.82,4.17,4.17,0,0,1,2,.42,3.77,3.77,0,0,1,1.16.95c.27.36.48.65.63.88h.2v-2.08h1.94v13.46a4.57,4.57,0,0,1-.76,2.75,4.42,4.42,0,0,1-2,1.56A7.7,7.7,0,0,1,69,193.6Zm-.06-7.19a3.6,3.6,0,0,0,2-.56,3.44,3.44,0,0,0,1.27-1.59,6.41,6.41,0,0,0,.44-2.49,6.93,6.93,0,0,0-.43-2.5A3.69,3.69,0,0,0,71,177.58a3.77,3.77,0,0,0-4.19,0,3.84,3.84,0,0,0-1.27,1.74,6.72,6.72,0,0,0-.42,2.42,6.24,6.24,0,0,0,.43,2.41,3.42,3.42,0,0,0,3.39,2.23Z"/><path class="cls-2" d="M80.36,180.54v7.88h-2V171h2v6.41h.17a3.72,3.72,0,0,1,1.38-1.61,4.49,4.49,0,0,1,2.47-.6,5,5,0,0,1,2.34.53,3.7,3.7,0,0,1,1.57,1.63,6.14,6.14,0,0,1,.56,2.78v8.32h-2v-8.18a3.38,3.38,0,0,0-.8-2.42A2.92,2.92,0,0,0,83.8,177a3.67,3.67,0,0,0-1.77.42,3.07,3.07,0,0,0-1.23,1.22A4,4,0,0,0,80.36,180.54Z"/><path class="cls-2" d="M101.66,171v17.46H99.55V171Z"/><path class="cls-2" d="M107.63,180.54v7.88h-2V175.33h1.94v2h.17a3.73,3.73,0,0,1,1.4-1.6,4.32,4.32,0,0,1,2.42-.61,4.83,4.83,0,0,1,2.33.54,3.74,3.74,0,0,1,1.55,1.64,6.08,6.08,0,0,1,.55,2.76v8.32h-2v-8.18a3.44,3.44,0,0,0-.8-2.41A2.85,2.85,0,0,0,111,177a3.51,3.51,0,0,0-1.72.42,3,3,0,0,0-1.19,1.22A4,4,0,0,0,107.63,180.54Z"/><path class="cls-2" d="M125,188.69a5.66,5.66,0,0,1-3.17-.87,5.55,5.55,0,0,1-2-2.39,8.78,8.78,0,0,1,0-7,5.83,5.83,0,0,1,2.06-2.4,5.59,5.59,0,0,1,3.1-.86,5.9,5.9,0,0,1,2.49.51,4.82,4.82,0,0,1,1.81,1.43,4.43,4.43,0,0,1,.88,2.15h-2a3.21,3.21,0,0,0-1-1.59A3.11,3.11,0,0,0,125,177a3.6,3.6,0,0,0-2.06.61,4,4,0,0,0-1.37,1.72,6.25,6.25,0,0,0-.49,2.58,6.71,6.71,0,0,0,.48,2.65,3.94,3.94,0,0,0,1.37,1.74,3.46,3.46,0,0,0,2.07.63,3.6,3.6,0,0,0,1.42-.28,3,3,0,0,0,1.09-.78,3.12,3.12,0,0,0,.63-1.23h2a4.62,4.62,0,0,1-.84,2.09,4.76,4.76,0,0,1-1.76,1.46A5.7,5.7,0,0,1,125,188.69Z"/><path class="cls-2" d="M138.38,188.69a5.52,5.52,0,0,1-5.19-3.2,8.07,8.07,0,0,1-.74-3.55,8.16,8.16,0,0,1,.74-3.57,5.67,5.67,0,0,1,2.08-2.37,6.18,6.18,0,0,1,6.22,0,5.64,5.64,0,0,1,2.07,2.37,8,8,0,0,1,.75,3.57,7.93,7.93,0,0,1-.75,3.55,5.5,5.5,0,0,1-5.18,3.2Zm0-1.8a3.36,3.36,0,0,0,2.21-.7,4.07,4.07,0,0,0,1.29-1.81,7.3,7.3,0,0,0,0-4.88,4.16,4.16,0,0,0-1.29-1.84,3.42,3.42,0,0,0-2.21-.7,3.47,3.47,0,0,0-2.22.7,4.06,4.06,0,0,0-1.28,1.84,7.3,7.3,0,0,0,0,4.88,4,4,0,0,0,1.28,1.81A3.41,3.41,0,0,0,138.38,186.89Z"/><path class="cls-2" d="M147.38,188.42V175.33h1.94v2h.17a3.38,3.38,0,0,1,1.32-1.63,4,4,0,0,1,2.19-.58,3.74,3.74,0,0,1,2.16.58,3.88,3.88,0,0,1,1.35,1.63h.14a3.9,3.9,0,0,1,1.51-1.61,4.61,4.61,0,0,1,2.41-.6,3.91,3.91,0,0,1,2.87,1.09,4.58,4.58,0,0,1,1.12,3.41v8.76h-2v-8.76a2.49,2.49,0,0,0-.79-2.07,2.91,2.91,0,0,0-1.87-.63,2.74,2.74,0,0,0-2.14.84,3,3,0,0,0-.76,2.1v8.52h-2v-9a2.35,2.35,0,0,0-.73-1.8,2.58,2.58,0,0,0-1.86-.69,2.75,2.75,0,0,0-1.47.42,3.2,3.2,0,0,0-1.09,1.16,3.48,3.48,0,0,0-.41,1.7v8.18Z"/><path class="cls-2" d="M173.73,188.69a6.11,6.11,0,0,1-3.26-.84,5.51,5.51,0,0,1-2.1-2.35,7.83,7.83,0,0,1-.74-3.52,8,8,0,0,1,.74-3.55,5.73,5.73,0,0,1,2.06-2.41,5.57,5.57,0,0,1,3.1-.86,6.16,6.16,0,0,1,2,.34,5,5,0,0,1,1.81,1.1,5.36,5.36,0,0,1,1.31,2,8.62,8.62,0,0,1,.48,3.08v.86H169.06v-1.74h8.05a4.37,4.37,0,0,0-.44-2,3.38,3.38,0,0,0-1.25-1.37,3.45,3.45,0,0,0-1.89-.51,3.57,3.57,0,0,0-2.08.6,3.85,3.85,0,0,0-1.34,1.54,4.51,4.51,0,0,0-.47,2v1.16a5.45,5.45,0,0,0,.52,2.51,3.56,3.56,0,0,0,1.43,1.56,4.17,4.17,0,0,0,2.14.54,4.35,4.35,0,0,0,1.44-.23,3,3,0,0,0,1.11-.68,3.17,3.17,0,0,0,.72-1.14l1.95.55a4.43,4.43,0,0,1-1,1.73,5,5,0,0,1-1.79,1.16A6.71,6.71,0,0,1,173.73,188.69Z"/><path class="cls-2" d="M44.54,205.62a17.45,17.45,0,0,1,.73-5.19,16.12,16.12,0,0,1,2.1-4.36h1.55a9.29,9.29,0,0,0-1,1.82,16.68,16.68,0,0,0-.82,2.36,24.54,24.54,0,0,0-.55,2.66,19.31,19.31,0,0,0,.15,6.31,21.45,21.45,0,0,0,.92,3.39,10.41,10.41,0,0,0,1.3,2.55H47.37a16.12,16.12,0,0,1-2.1-4.36A17.39,17.39,0,0,1,44.54,205.62Z"/><path class="cls-2" d="M61.63,206.45,52,211.34v-1.91l7.37-3.55-.06.12v-.29l.06.11L52,202.28v-1.91l9.61,4.89Z"/><path class="cls-2" d="M70.19,197.74a5.69,5.69,0,0,1,1.88.36,4.53,4.53,0,0,1,1.71,1.16A5.78,5.78,0,0,1,75,201.47,11.36,11.36,0,0,1,75.5,205a15.07,15.07,0,0,1-.39,3.61,8.19,8.19,0,0,1-1.1,2.66,4.93,4.93,0,0,1-1.74,1.64,4.82,4.82,0,0,1-2.32.56,4.94,4.94,0,0,1-2.28-.51A4.44,4.44,0,0,1,66,211.53a5,5,0,0,1-.81-2.13H67a3.32,3.32,0,0,0,1,1.74,2.76,2.76,0,0,0,1.94.68,3.17,3.17,0,0,0,2.79-1.54,7.82,7.82,0,0,0,1-4.37h-.12a4.91,4.91,0,0,1-1,1.09,4.68,4.68,0,0,1-1.28.7,4.75,4.75,0,0,1-3.89-.41,4.8,4.8,0,0,1-1.75-1.8,5.22,5.22,0,0,1-.65-2.62,5.39,5.39,0,0,1,.63-2.59,4.79,4.79,0,0,1,1.77-1.86A5.07,5.07,0,0,1,70.19,197.74Zm0,1.64a3.14,3.14,0,0,0-1.69.47,3.43,3.43,0,0,0-1.19,1.26,3.82,3.82,0,0,0,0,3.5,3.27,3.27,0,0,0,1.16,1.23,3,3,0,0,0,1.67.46,3.1,3.1,0,0,0,1.32-.28,3.25,3.25,0,0,0,1.07-.77,3.43,3.43,0,0,0,.72-1.11,3.39,3.39,0,0,0,.26-1.3,3.49,3.49,0,0,0-.43-1.7,3.35,3.35,0,0,0-1.18-1.27A3,3,0,0,0,70.19,199.38Z"/><path class="cls-2" d="M83.4,213.46a4.57,4.57,0,0,1-2.87-.92,5.72,5.72,0,0,1-1.81-2.68,14.58,14.58,0,0,1,0-8.48,5.78,5.78,0,0,1,1.82-2.68,4.86,4.86,0,0,1,5.72,0,5.71,5.71,0,0,1,1.82,2.68,12.63,12.63,0,0,1,.63,4.24,12.86,12.86,0,0,1-.62,4.24,5.73,5.73,0,0,1-1.82,2.68A4.55,4.55,0,0,1,83.4,213.46Zm0-1.64a2.88,2.88,0,0,0,2.6-1.61,9.41,9.41,0,0,0,.92-4.59,11.81,11.81,0,0,0-.42-3.38,4.66,4.66,0,0,0-1.21-2.13,2.69,2.69,0,0,0-1.89-.73A2.85,2.85,0,0,0,80.82,201a9.28,9.28,0,0,0-.94,4.61A11.78,11.78,0,0,0,80.3,209a4.58,4.58,0,0,0,1.21,2.11A2.69,2.69,0,0,0,83.4,211.82Z"/><path class="cls-2" d="M91.58,213.25V198h1.76v15.27Zm1.64-4.17,0-2.18h.36l5-5.1h2.17l-5.33,5.4h-.15Zm5.63,4.17-4.47-5.67,1.25-1.22,5.46,6.89Z"/><path class="cls-2" d="M108.4,197.26l-4.92,18.29h-1.61l4.92-18.29Z"/><path class="cls-2" d="M111.62,217.52a4.76,4.76,0,0,1-.8-.07,2.7,2.7,0,0,1-.48-.14l.45-1.55a2.61,2.61,0,0,0,1.6,0,2.44,2.44,0,0,0,1.11-1.54l.33-.9-4.24-11.51h1.91l3.16,9.13h.12L118,201.8l1.92,0L115,214.92a5,5,0,0,1-.81,1.45,3,3,0,0,1-1.12.86A3.53,3.53,0,0,1,111.62,217.52Z"/><path class="cls-2" d="M126.58,213.49a5.35,5.35,0,0,1-2.85-.73,4.85,4.85,0,0,1-1.84-2.06,7,7,0,0,1-.65-3.09,7.1,7.1,0,0,1,.65-3.1,5,5,0,0,1,1.8-2.1,4.81,4.81,0,0,1,2.71-.76,5.39,5.39,0,0,1,1.77.3,4.52,4.52,0,0,1,1.59,1,4.67,4.67,0,0,1,1.14,1.77,7.58,7.58,0,0,1,.42,2.7v.74h-8.83V206.6h7a3.73,3.73,0,0,0-.38-1.73,2.94,2.94,0,0,0-1.09-1.2,3.38,3.38,0,0,0-3.47.08,3.47,3.47,0,0,0-1.18,1.34,4,4,0,0,0-.41,1.78v1a4.87,4.87,0,0,0,.45,2.2,3.14,3.14,0,0,0,1.26,1.36,3.68,3.68,0,0,0,1.87.47,3.87,3.87,0,0,0,1.26-.2,2.67,2.67,0,0,0,1-.59,2.63,2.63,0,0,0,.63-1l1.71.48a3.77,3.77,0,0,1-.91,1.52,4.34,4.34,0,0,1-1.56,1A5.78,5.78,0,0,1,126.58,213.49Z"/><path class="cls-2" d="M137.38,213.52a4.71,4.71,0,0,1-2-.41,3.24,3.24,0,0,1-1.93-3.11,2.94,2.94,0,0,1,.39-1.6,2.67,2.67,0,0,1,1-1,5.42,5.42,0,0,1,1.43-.53c.53-.12,1-.21,1.59-.28.69-.09,1.26-.16,1.69-.2a2.52,2.52,0,0,0,1-.25.62.62,0,0,0,.3-.59v-.06a2.35,2.35,0,0,0-.6-1.72,2.44,2.44,0,0,0-1.82-.61,3.12,3.12,0,0,0-2,.55,3.21,3.21,0,0,0-1,1.18l-1.67-.6a4.08,4.08,0,0,1,1.2-1.63,4.52,4.52,0,0,1,1.64-.82,7.13,7.13,0,0,1,1.75-.23,7,7,0,0,1,1.28.13,4.16,4.16,0,0,1,1.39.53,3.17,3.17,0,0,1,1.12,1.22,4.5,4.5,0,0,1,.45,2.18v7.54h-1.76V211.7h-.09a3,3,0,0,1-.6.8,3.55,3.55,0,0,1-1.11.72A4.22,4.22,0,0,1,137.38,213.52Zm.27-1.58a3.55,3.55,0,0,0,1.76-.41,2.85,2.85,0,0,0,1.09-1.06,2.68,2.68,0,0,0,.37-1.36V207.5a1.15,1.15,0,0,1-.49.24,7.57,7.57,0,0,1-.86.18c-.33.06-.65.1-1,.14l-.74.09a6.87,6.87,0,0,0-1.28.29,2.21,2.21,0,0,0-1,.59,1.5,1.5,0,0,0-.36,1.06,1.57,1.57,0,0,0,.68,1.38A3,3,0,0,0,137.65,211.94Z"/><path class="cls-2" d="M145.85,213.25V201.8h1.7v1.73h.12a2.76,2.76,0,0,1,1.13-1.38,3.39,3.39,0,0,1,1.85-.53h.49l.44,0v1.79l-.41-.07a4.68,4.68,0,0,0-.67-.05,3,3,0,0,0-1.48.35,2.58,2.58,0,0,0-1.41,2.33v7.25Z"/><path class="cls-2" d="M157.42,206.81a17.45,17.45,0,0,1-.73,5.19,16.06,16.06,0,0,1-2.1,4.35H153a9.19,9.19,0,0,0,1-1.81,17.28,17.28,0,0,0,.82-2.37,22,22,0,0,0,.55-2.66,19.16,19.16,0,0,0,.19-2.7,19.39,19.39,0,0,0-.34-3.6,20.82,20.82,0,0,0-.92-3.4,10.79,10.79,0,0,0-1.3-2.55h1.55a16.12,16.12,0,0,1,2.1,4.36A17.45,17.45,0,0,1,157.42,206.81Z"/><path class="cls-2" d="M253.89,170.93h2.53l5.93,14.48h.2l5.93-14.48H271v17.45h-2V175.12h-.17l-5.46,13.26h-1.9L256,175.12h-.17v13.26h-2Z"/><path class="cls-2" d="M276,173.11a1.45,1.45,0,0,1-1-.4,1.32,1.32,0,0,1,0-1.93,1.4,1.4,0,0,1,1-.4,1.39,1.39,0,0,1,1,.4,1.3,1.3,0,0,1,0,1.93A1.43,1.43,0,0,1,276,173.11Zm-1,15.27V175.29h2v13.09Z"/><path class="cls-2" d="M285.6,188.65a5.05,5.05,0,0,1-2.89-.83,5.5,5.5,0,0,1-2-2.35,9.43,9.43,0,0,1,0-7.18,5.49,5.49,0,0,1,2-2.34,5.12,5.12,0,0,1,2.91-.83,4.17,4.17,0,0,1,2,.42,3.67,3.67,0,0,1,1.14,1c.26.35.47.64.62.87h.17v-6.44h2v17.45h-2v-2h-.23a11,11,0,0,1-.64.9,3.65,3.65,0,0,1-1.16,1A4.18,4.18,0,0,1,285.6,188.65Zm.27-1.8a3.32,3.32,0,0,0,2.05-.64,4,4,0,0,0,1.27-1.76,7.31,7.31,0,0,0,.43-2.62,6.94,6.94,0,0,0-.43-2.56,3.76,3.76,0,0,0-1.26-1.73,3.8,3.8,0,0,0-4.19,0,3.92,3.92,0,0,0-1.27,1.76,7.65,7.65,0,0,0,0,5,4.09,4.09,0,0,0,1.28,1.81A3.35,3.35,0,0,0,285.87,186.85Z"/><path class="cls-2" d="M304.69,170.93v17.45h-2.12V170.93Z"/><path class="cls-2" d="M310.65,180.51v7.87h-2V175.29h1.94v2h.18a3.71,3.71,0,0,1,1.39-1.6,4.34,4.34,0,0,1,2.42-.61,4.8,4.8,0,0,1,2.33.54,3.68,3.68,0,0,1,1.55,1.64,6.08,6.08,0,0,1,.55,2.76v8.32h-2V180.2a3.39,3.39,0,0,0-.8-2.41,2.82,2.82,0,0,0-2.2-.86,3.43,3.43,0,0,0-1.71.41,3,3,0,0,0-1.19,1.22A4,4,0,0,0,310.65,180.51Z"/><path class="cls-2" d="M328,188.65a5.47,5.47,0,0,1-5.22-3.26,8.78,8.78,0,0,1,0-7,5.83,5.83,0,0,1,2.06-2.4,5.62,5.62,0,0,1,3.1-.86,5.9,5.9,0,0,1,2.49.51,4.86,4.86,0,0,1,1.82,1.43,4.46,4.46,0,0,1,.87,2.15h-2a3.06,3.06,0,0,0-3.13-2.28,3.5,3.5,0,0,0-2.06.61,3.86,3.86,0,0,0-1.37,1.71,6.25,6.25,0,0,0-.5,2.58,6.7,6.7,0,0,0,.49,2.65,3.93,3.93,0,0,0,1.36,1.74,3.75,3.75,0,0,0,3.5.35,2.83,2.83,0,0,0,1.08-.78,2.88,2.88,0,0,0,.63-1.23h2a4.62,4.62,0,0,1-.84,2.09,4.69,4.69,0,0,1-1.76,1.46A5.68,5.68,0,0,1,328,188.65Z"/><path class="cls-2" d="M341.4,188.65a5.69,5.69,0,0,1-3.1-.84,5.63,5.63,0,0,1-2.08-2.36,7.9,7.9,0,0,1-.75-3.55,8,8,0,0,1,.75-3.57,5.51,5.51,0,0,1,5.18-3.21,5.51,5.51,0,0,1,5.19,3.21,8,8,0,0,1,.74,3.57,7.9,7.9,0,0,1-.74,3.55,5.52,5.52,0,0,1-5.19,3.2Zm0-1.8a3.46,3.46,0,0,0,2.22-.69,4.1,4.1,0,0,0,1.29-1.82,7.47,7.47,0,0,0,0-4.88,4.16,4.16,0,0,0-1.29-1.84,3.9,3.9,0,0,0-4.43,0,4.16,4.16,0,0,0-1.29,1.84,7.3,7.3,0,0,0,0,4.88,4.1,4.1,0,0,0,1.29,1.82A3.45,3.45,0,0,0,341.4,186.85Z"/><path class="cls-2" d="M350.4,188.38V175.29h2v2h.17a3.32,3.32,0,0,1,1.32-1.63,4,4,0,0,1,2.19-.58,3.78,3.78,0,0,1,2.16.58,4,4,0,0,1,1.35,1.63h.13a3.9,3.9,0,0,1,1.51-1.61,4.65,4.65,0,0,1,2.42-.6,3.93,3.93,0,0,1,2.87,1.09,4.62,4.62,0,0,1,1.11,3.41v8.76h-2v-8.76a2.46,2.46,0,0,0-.79-2.07,2.91,2.91,0,0,0-1.87-.62,2.74,2.74,0,0,0-2.14.83,3,3,0,0,0-.75,2.1v8.52h-2v-9a2.38,2.38,0,0,0-.72-1.8,2.61,2.61,0,0,0-1.87-.68,2.71,2.71,0,0,0-1.46.41,3.12,3.12,0,0,0-1.09,1.16,3.37,3.37,0,0,0-.42,1.7v8.18Z"/><path class="cls-2" d="M376.75,188.65a6.07,6.07,0,0,1-3.25-.84,5.47,5.47,0,0,1-2.11-2.35,8,8,0,0,1-.74-3.52,8.13,8.13,0,0,1,.74-3.55,5.8,5.8,0,0,1,2.06-2.41,5.62,5.62,0,0,1,3.1-.86,6.12,6.12,0,0,1,2,.34,5.2,5.2,0,0,1,1.82,1.1,5.35,5.35,0,0,1,1.3,2,8.61,8.61,0,0,1,.49,3.08v.86h-10.1v-1.74h8.05a4.37,4.37,0,0,0-.44-2,3.36,3.36,0,0,0-1.24-1.37,3.48,3.48,0,0,0-1.9-.5,3.55,3.55,0,0,0-2.07.59,3.94,3.94,0,0,0-1.35,1.54,4.51,4.51,0,0,0-.47,2v1.16a5.58,5.58,0,0,0,.52,2.51,3.52,3.52,0,0,0,1.44,1.56,4.11,4.11,0,0,0,2.13.54,4.35,4.35,0,0,0,1.44-.23A3,3,0,0,0,380,184.8l1.94.55a4.25,4.25,0,0,1-1,1.73,5,5,0,0,1-1.79,1.16A6.5,6.5,0,0,1,376.75,188.65Z"/><path class="cls-2" d="M241.59,205.55a17.45,17.45,0,0,1,.74-5.19,16.12,16.12,0,0,1,2.1-4.36H246a9.29,9.29,0,0,0-1,1.82,15.9,15.9,0,0,0-.82,2.36,20.89,20.89,0,0,0-.55,2.66,20.42,20.42,0,0,0,1.07,9.7,10.41,10.41,0,0,0,1.3,2.55h-1.55a16,16,0,0,1-2.1-4.36A17.33,17.33,0,0,1,241.59,205.55Z"/><path class="cls-2" d="M253.41,197.67a5.63,5.63,0,0,1,1.87.36,4.56,4.56,0,0,1,1.72,1.16,6,6,0,0,1,1.25,2.22,11.24,11.24,0,0,1,.47,3.51,15.07,15.07,0,0,1-.39,3.61,8.1,8.1,0,0,1-1.1,2.66,4.88,4.88,0,0,1-1.75,1.64,4.65,4.65,0,0,1-2.31.56,5,5,0,0,1-2.29-.51,4.41,4.41,0,0,1-1.64-1.42,5,5,0,0,1-.82-2.12h1.82a3.35,3.35,0,0,0,1,1.73,2.77,2.77,0,0,0,1.95.68,3.17,3.17,0,0,0,2.79-1.54,7.87,7.87,0,0,0,1-4.36h-.12a4.89,4.89,0,0,1-1,1.08,4.49,4.49,0,0,1-1.27.7,4.77,4.77,0,0,1-3.9-.41,4.71,4.71,0,0,1-1.74-1.8,5.13,5.13,0,0,1-.66-2.62,5.25,5.25,0,0,1,.64-2.58,4.75,4.75,0,0,1,1.77-1.87A5,5,0,0,1,253.41,197.67Zm0,1.64a3.14,3.14,0,0,0-1.69.47,3.51,3.51,0,0,0-1.19,1.26,3.62,3.62,0,0,0-.44,1.76,3.51,3.51,0,0,0,.43,1.74,3.27,3.27,0,0,0,1.15,1.24,3.15,3.15,0,0,0,1.68.45,3.1,3.1,0,0,0,1.32-.28,3.48,3.48,0,0,0,1.07-.76,4,4,0,0,0,.72-1.12,3.35,3.35,0,0,0,.26-1.3,3.61,3.61,0,0,0-.43-1.7,3.51,3.51,0,0,0-1.18-1.27A3.1,3.1,0,0,0,253.41,199.31Z"/><path class="cls-2" d="M266.62,213.39a4.51,4.51,0,0,1-2.87-.92,5.6,5.6,0,0,1-1.81-2.68,14.55,14.55,0,0,1,0-8.47,5.77,5.77,0,0,1,1.82-2.69,4.86,4.86,0,0,1,5.72,0,5.77,5.77,0,0,1,1.82,2.69,14.55,14.55,0,0,1,0,8.47,5.6,5.6,0,0,1-1.81,2.68A4.51,4.51,0,0,1,266.62,213.39Zm0-1.64a2.84,2.84,0,0,0,2.59-1.61,9.26,9.26,0,0,0,.93-4.59,11.85,11.85,0,0,0-.42-3.38,4.75,4.75,0,0,0-1.21-2.13,2.69,2.69,0,0,0-1.89-.73,2.88,2.88,0,0,0-2.59,1.63,9.4,9.4,0,0,0-.93,4.61,11.78,11.78,0,0,0,.42,3.37,4.66,4.66,0,0,0,1.2,2.11A2.73,2.73,0,0,0,266.62,211.75Z"/><path class="cls-2" d="M274.79,213.18V197.91h1.76v15.27Zm1.64-4.17,0-2.18h.36l5-5.1H284l-5.34,5.4h-.15Zm5.64,4.17-4.47-5.66,1.25-1.23,5.46,6.89Z"/><path class="cls-2" d="M291.83,205.82v1.64h-6.69v-1.64Z"/><path class="cls-2" d="M299.82,213.39a6.63,6.63,0,0,1-2.63-.5,4.44,4.44,0,0,1-1.83-1.42,3.72,3.72,0,0,1-.73-2.1h1.88a2.21,2.21,0,0,0,.51,1.27,2.81,2.81,0,0,0,1.17.82,4.11,4.11,0,0,0,1.6.29,4.2,4.2,0,0,0,1.75-.34,2.91,2.91,0,0,0,1.19-1,2.36,2.36,0,0,0,.43-1.41,2.68,2.68,0,0,0-.42-1.49,2.73,2.73,0,0,0-1.22-1,4.81,4.81,0,0,0-2-.37h-1.22v-1.64h1.22a3.81,3.81,0,0,0,1.6-.32,2.59,2.59,0,0,0,1.08-.93,2.5,2.5,0,0,0,.39-1.4,2.56,2.56,0,0,0-.34-1.35,2.45,2.45,0,0,0-1-.9,3.25,3.25,0,0,0-1.47-.32,3.92,3.92,0,0,0-1.49.29,2.8,2.8,0,0,0-1.13.83,2.09,2.09,0,0,0-.48,1.3H295a3.7,3.7,0,0,1,.72-2.11,4.62,4.62,0,0,1,1.78-1.41,5.67,5.67,0,0,1,2.42-.51,4.91,4.91,0,0,1,2.43.57,4,4,0,0,1,1.56,1.51,3.93,3.93,0,0,1,.54,2,3.59,3.59,0,0,1-.67,2.2,3.42,3.42,0,0,1-1.83,1.26v.12a3.56,3.56,0,0,1,2.26,1.23A3.7,3.7,0,0,1,305,209a3.86,3.86,0,0,1-.67,2.23,4.69,4.69,0,0,1-1.84,1.56A6.1,6.1,0,0,1,299.82,213.39Z"/><path class="cls-2" d="M313.09,213.39a6,6,0,0,1-1.88-.35,4.61,4.61,0,0,1-1.71-1.16,6,6,0,0,1-1.25-2.22,11.3,11.3,0,0,1-.46-3.52,15.15,15.15,0,0,1,.38-3.61,8.19,8.19,0,0,1,1.1-2.66,4.88,4.88,0,0,1,1.75-1.64,4.76,4.76,0,0,1,2.31-.56,4.86,4.86,0,0,1,2.29.52,4.44,4.44,0,0,1,1.64,1.43,5,5,0,0,1,.82,2.11h-1.82a3.37,3.37,0,0,0-1-1.73,2.71,2.71,0,0,0-1.94-.69,3.18,3.18,0,0,0-2.79,1.55,8,8,0,0,0-1,4.36h.12a4.72,4.72,0,0,1,1-1.09,4.4,4.4,0,0,1,1.28-.69,4.3,4.3,0,0,1,1.48-.25,4.6,4.6,0,0,1,2.4.65,5,5,0,0,1,1.75,1.8,5.15,5.15,0,0,1,.66,2.62,5.37,5.37,0,0,1-.64,2.59,4.71,4.71,0,0,1-1.78,1.87A5,5,0,0,1,313.09,213.39Zm0-1.64a3.05,3.05,0,0,0,1.69-.47A3.35,3.35,0,0,0,316,210a3.7,3.7,0,0,0,0-3.48,3.3,3.3,0,0,0-1.15-1.25,3.16,3.16,0,0,0-1.68-.46,3.1,3.1,0,0,0-1.32.28,3.52,3.52,0,0,0-1.07.77A3.88,3.88,0,0,0,310,207a3.44,3.44,0,0,0-.26,1.31,3.55,3.55,0,0,0,1.61,3A3.09,3.09,0,0,0,313.09,211.75Z"/><path class="cls-2" d="M321.15,213.18V197.91h1.76v15.27Zm1.64-4.17,0-2.18h.36l5-5.1h2.18l-5.34,5.4h-.15Zm5.64,4.17L324,207.52l1.26-1.23,5.45,6.89Z"/><path class="cls-2" d="M338,197.2l-4.92,18.28h-1.61l4.92-18.28Z"/><path class="cls-2" d="M341.19,217.45a3.91,3.91,0,0,1-.8-.07,2,2,0,0,1-.48-.14l.45-1.55a2.61,2.61,0,0,0,1.6,0,2.44,2.44,0,0,0,1.11-1.54l.33-.9-4.24-11.51h1.91l3.17,9.13h.11l3.17-9.13,1.92,0-4.88,13.09a5.06,5.06,0,0,1-.81,1.46,3.18,3.18,0,0,1-1.12.86A3.7,3.7,0,0,1,341.19,217.45Z"/><path class="cls-2" d="M356.15,213.42a5.35,5.35,0,0,1-2.85-.73,4.85,4.85,0,0,1-1.84-2.06,7,7,0,0,1-.65-3.08,7.11,7.11,0,0,1,.65-3.11,5,5,0,0,1,1.8-2.1,4.83,4.83,0,0,1,2.71-.76,5.39,5.39,0,0,1,1.77.3,4.52,4.52,0,0,1,1.59,1,4.67,4.67,0,0,1,1.14,1.77,7.56,7.56,0,0,1,.43,2.7v.74h-8.83v-1.52h7a3.76,3.76,0,0,0-.39-1.73,2.88,2.88,0,0,0-1.09-1.2,3.38,3.38,0,0,0-3.47.08A3.5,3.5,0,0,0,353,205a4,4,0,0,0-.41,1.77v1A4.87,4.87,0,0,0,353,210a3.28,3.28,0,0,0,1.26,1.37,3.68,3.68,0,0,0,1.87.46,3.58,3.58,0,0,0,1.26-.2,2.57,2.57,0,0,0,1.61-1.59l1.7.48a3.71,3.71,0,0,1-.91,1.52,4.34,4.34,0,0,1-1.56,1A5.78,5.78,0,0,1,356.15,213.42Z"/><path class="cls-2" d="M367,213.45a4.74,4.74,0,0,1-2-.41,3.24,3.24,0,0,1-1.93-3.11,3,3,0,0,1,.39-1.6,2.67,2.67,0,0,1,1-1,5.42,5.42,0,0,1,1.43-.53c.53-.12,1.06-.21,1.59-.28.69-.09,1.26-.16,1.69-.2a2.52,2.52,0,0,0,1-.25.62.62,0,0,0,.3-.59v-.06a2.35,2.35,0,0,0-.6-1.72,2.48,2.48,0,0,0-1.82-.61,3.2,3.2,0,0,0-2,.55,3.31,3.31,0,0,0-1,1.18l-1.67-.59a4,4,0,0,1,1.2-1.63,4.37,4.37,0,0,1,1.64-.82,6.7,6.7,0,0,1,1.75-.24,7,7,0,0,1,1.28.13,4.38,4.38,0,0,1,1.39.53,3.17,3.17,0,0,1,1.12,1.22,4.5,4.5,0,0,1,.45,2.18v7.54h-1.76v-1.55h-.09a3,3,0,0,1-.6.8,3.19,3.19,0,0,1-1.11.72A4.22,4.22,0,0,1,367,213.45Zm.27-1.58a3.52,3.52,0,0,0,1.76-.41,2.78,2.78,0,0,0,1.09-1.06,2.65,2.65,0,0,0,.37-1.36v-1.61a1,1,0,0,1-.49.24c-.25.07-.54.13-.86.19l-.95.13-.74.09a6.87,6.87,0,0,0-1.28.29,2.27,2.27,0,0,0-1,.59,1.5,1.5,0,0,0-.36,1.06,1.58,1.58,0,0,0,.69,1.39A3,3,0,0,0,367.22,211.87Z"/><path class="cls-2" d="M375.42,213.18V201.73h1.7v1.73h.12a2.73,2.73,0,0,1,1.14-1.38,3.33,3.33,0,0,1,1.84-.53h.49l.44,0v1.79l-.41-.07a4.65,4.65,0,0,0-.66-.05,3.12,3.12,0,0,0-1.49.35,2.58,2.58,0,0,0-1.41,2.34v7.24Z"/><path class="cls-2" d="M387,206.74a17.45,17.45,0,0,1-.74,5.19,16.12,16.12,0,0,1-2.1,4.36h-1.55a9.59,9.59,0,0,0,1-1.82,17.61,17.61,0,0,0,.82-2.36,22.53,22.53,0,0,0,.55-2.67,19.09,19.09,0,0,0,.2-2.7,19.42,19.42,0,0,0-.35-3.6,20.43,20.43,0,0,0-.92-3.39,10.41,10.41,0,0,0-1.3-2.55h1.55a16.06,16.06,0,0,1,2.1,4.35A17.45,17.45,0,0,1,387,206.74Z"/><path class="cls-2" d="M448,188.38V170.93h2.11v15.58h8.11v1.87Z"/><path class="cls-2" d="M466.54,188.65a5.52,5.52,0,0,1-5.19-3.2,8,8,0,0,1-.74-3.55,8.16,8.16,0,0,1,.74-3.57,5.74,5.74,0,0,1,10.38,0,8.16,8.16,0,0,1,.74,3.57,8,8,0,0,1-.74,3.55,5.52,5.52,0,0,1-5.19,3.2Zm0-1.8a3.46,3.46,0,0,0,2.22-.69,4,4,0,0,0,1.28-1.82,7.3,7.3,0,0,0,0-4.88,4.06,4.06,0,0,0-1.28-1.84,3.46,3.46,0,0,0-2.22-.69,3.41,3.41,0,0,0-2.21.69,4.16,4.16,0,0,0-1.29,1.84,7.3,7.3,0,0,0,0,4.88,4.1,4.1,0,0,0,1.29,1.82A3.41,3.41,0,0,0,466.54,186.85Z"/><path class="cls-2" d="M478.06,188.38l-4-13.09h2.11l2.83,10h.13l2.8-10h2.15l2.76,10H487l2.83-10h2.11l-4,13.09h-2l-2.86-10.06h-.21L480,188.38Z"/><path class="cls-2" d="M503.73,170.93v17.45h-2.11V170.93Z"/><path class="cls-2" d="M509.7,180.51v7.87h-2V175.29h1.94v2h.17a3.8,3.8,0,0,1,1.4-1.6,4.34,4.34,0,0,1,2.42-.61,4.83,4.83,0,0,1,2.33.54,3.74,3.74,0,0,1,1.55,1.64,6.08,6.08,0,0,1,.55,2.76v8.32h-2V180.2a3.44,3.44,0,0,0-.8-2.41,2.83,2.83,0,0,0-2.2-.86,3.5,3.5,0,0,0-1.72.41,3,3,0,0,0-1.19,1.22A4,4,0,0,0,509.7,180.51Z"/><path class="cls-2" d="M527.05,188.65a5.47,5.47,0,0,1-5.21-3.26,8.78,8.78,0,0,1,0-7,5.83,5.83,0,0,1,2.06-2.4,5.59,5.59,0,0,1,3.1-.86,5.9,5.9,0,0,1,2.49.51,4.75,4.75,0,0,1,1.81,1.43,4.47,4.47,0,0,1,.88,2.15h-2a3.14,3.14,0,0,0-1-1.59,3.11,3.11,0,0,0-2.12-.69,3.52,3.52,0,0,0-2.06.61,4,4,0,0,0-1.37,1.71,6.25,6.25,0,0,0-.49,2.58,6.71,6.71,0,0,0,.48,2.65,3.94,3.94,0,0,0,1.37,1.74,3.73,3.73,0,0,0,3.49.35,3,3,0,0,0,1.09-.78,3.12,3.12,0,0,0,.63-1.23h2a4.62,4.62,0,0,1-.84,2.09,4.76,4.76,0,0,1-1.76,1.46A5.7,5.7,0,0,1,527.05,188.65Z"/><path class="cls-2" d="M540.45,188.65a5.52,5.52,0,0,1-5.19-3.2,8,8,0,0,1-.74-3.55,8.16,8.16,0,0,1,.74-3.57,5.73,5.73,0,0,1,10.37,0,8,8,0,0,1,.75,3.57,7.9,7.9,0,0,1-.75,3.55,5.5,5.5,0,0,1-5.18,3.2Zm0-1.8a3.46,3.46,0,0,0,2.22-.69,4.16,4.16,0,0,0,1.28-1.82,7.3,7.3,0,0,0,0-4.88,4.22,4.22,0,0,0-1.28-1.84,3.92,3.92,0,0,0-4.44,0,4.06,4.06,0,0,0-1.28,1.84,7.3,7.3,0,0,0,0,4.88,4,4,0,0,0,1.28,1.82A3.46,3.46,0,0,0,540.45,186.85Z"/><path class="cls-2" d="M549.45,188.38V175.29h1.94v2h.17a3.43,3.43,0,0,1,1.32-1.63,4,4,0,0,1,2.19-.58,3.74,3.74,0,0,1,2.16.58,4,4,0,0,1,1.36,1.63h.13a3.9,3.9,0,0,1,1.51-1.61,4.63,4.63,0,0,1,2.41-.6,3.91,3.91,0,0,1,2.87,1.09,4.58,4.58,0,0,1,1.12,3.41v8.76h-2v-8.76a2.46,2.46,0,0,0-.79-2.07,2.91,2.91,0,0,0-1.87-.62,2.74,2.74,0,0,0-2.14.83,3,3,0,0,0-.76,2.1v8.52h-2v-9a2.35,2.35,0,0,0-.73-1.8,2.57,2.57,0,0,0-1.86-.68,2.74,2.74,0,0,0-1.47.41,3.2,3.2,0,0,0-1.09,1.16,3.48,3.48,0,0,0-.41,1.7v8.18Z"/><path class="cls-2" d="M575.8,188.65a6.11,6.11,0,0,1-3.26-.84,5.51,5.51,0,0,1-2.1-2.35,7.83,7.83,0,0,1-.74-3.52,8,8,0,0,1,.74-3.55A5.8,5.8,0,0,1,572.5,176a5.59,5.59,0,0,1,3.1-.86,6.16,6.16,0,0,1,2,.34,5.16,5.16,0,0,1,1.81,1.1,5.36,5.36,0,0,1,1.31,2,8.62,8.62,0,0,1,.48,3.08v.86H571.13v-1.74h8a4.37,4.37,0,0,0-.44-2,3.38,3.38,0,0,0-1.25-1.37,3.44,3.44,0,0,0-1.89-.5,3.58,3.58,0,0,0-2.08.59,3.91,3.91,0,0,0-1.34,1.54,4.51,4.51,0,0,0-.47,2v1.16a5.45,5.45,0,0,0,.52,2.51,3.56,3.56,0,0,0,1.43,1.56,4.17,4.17,0,0,0,2.14.54,4.35,4.35,0,0,0,1.44-.23,3,3,0,0,0,1.11-.68,3.09,3.09,0,0,0,.72-1.14l1.95.55a4.36,4.36,0,0,1-1,1.73,5,5,0,0,1-1.79,1.16A6.5,6.5,0,0,1,575.8,188.65Z"/><path class="cls-2" d="M455.33,205.55a17.45,17.45,0,0,1,.73-5.19,16.12,16.12,0,0,1,2.1-4.36h1.55a9.84,9.84,0,0,0-1,1.82,18.57,18.57,0,0,0-.82,2.36,22.77,22.77,0,0,0-.54,2.66,17.94,17.94,0,0,0-.2,2.71,19.39,19.39,0,0,0,.34,3.6,20.42,20.42,0,0,0,.93,3.39,10.41,10.41,0,0,0,1.29,2.55h-1.55a16,16,0,0,1-2.1-4.36A17.34,17.34,0,0,1,455.33,205.55Z"/><path class="cls-2" d="M462.82,206.38v-1.19l9.6-4.89v1.91l-7.37,3.55.06-.12v.3l-.06-.12,7.37,3.55v1.9Z"/><path class="cls-2" d="M481.28,213.39a6.6,6.6,0,0,1-2.63-.5,4.44,4.44,0,0,1-1.83-1.42,3.72,3.72,0,0,1-.73-2.1H478a2.21,2.21,0,0,0,.51,1.27,2.81,2.81,0,0,0,1.17.82,4.11,4.11,0,0,0,1.6.29,4.2,4.2,0,0,0,1.75-.34,2.91,2.91,0,0,0,1.19-1,2.36,2.36,0,0,0,.43-1.41,2.68,2.68,0,0,0-.42-1.49,2.73,2.73,0,0,0-1.22-1,4.81,4.81,0,0,0-2-.37h-1.22v-1.64H481a3.81,3.81,0,0,0,1.6-.32,2.59,2.59,0,0,0,1.08-.93,2.5,2.5,0,0,0,.39-1.4,2.56,2.56,0,0,0-.34-1.35,2.41,2.41,0,0,0-1-.9,3.18,3.18,0,0,0-1.46-.32,3.92,3.92,0,0,0-1.49.29,2.9,2.9,0,0,0-1.14.83,2.14,2.14,0,0,0-.47,1.3h-1.79a3.7,3.7,0,0,1,.72-2.11,4.62,4.62,0,0,1,1.78-1.41,5.67,5.67,0,0,1,2.42-.51,4.91,4.91,0,0,1,2.43.57,4,4,0,0,1,1.56,1.51,3.93,3.93,0,0,1,.54,2,3.59,3.59,0,0,1-.67,2.2,3.42,3.42,0,0,1-1.83,1.26v.12a3.59,3.59,0,0,1,2.26,1.23,3.7,3.7,0,0,1,.81,2.44,3.93,3.93,0,0,1-.67,2.23,4.69,4.69,0,0,1-1.84,1.56A6.1,6.1,0,0,1,481.28,213.39Z"/><path class="cls-2" d="M494.55,213.39a6,6,0,0,1-1.88-.35,4.61,4.61,0,0,1-1.71-1.16,6,6,0,0,1-1.25-2.22,11.27,11.27,0,0,1-.47-3.52,15.69,15.69,0,0,1,.38-3.61,8.42,8.42,0,0,1,1.11-2.66,4.88,4.88,0,0,1,1.75-1.64,4.76,4.76,0,0,1,2.31-.56,4.86,4.86,0,0,1,2.29.52,4.33,4.33,0,0,1,1.63,1.43,4.93,4.93,0,0,1,.83,2.11h-1.83a3.29,3.29,0,0,0-1-1.73,2.71,2.71,0,0,0-1.94-.69,3.18,3.18,0,0,0-2.79,1.55,8,8,0,0,0-1,4.36h.12a4.72,4.72,0,0,1,1-1.09,4.54,4.54,0,0,1,2.76-.94,4.6,4.6,0,0,1,2.4.65,5,5,0,0,1,1.75,1.8,5.15,5.15,0,0,1,.65,2.62,5.37,5.37,0,0,1-.63,2.59,4.78,4.78,0,0,1-1.78,1.87A5,5,0,0,1,494.55,213.39Zm0-1.64a3.05,3.05,0,0,0,1.69-.47,3.35,3.35,0,0,0,1.19-1.26,3.77,3.77,0,0,0,0-3.48,3.3,3.3,0,0,0-1.15-1.25,3.16,3.16,0,0,0-1.68-.46,3.1,3.1,0,0,0-1.32.28,3.52,3.52,0,0,0-1.07.77,3.88,3.88,0,0,0-.72,1.1,3.51,3.51,0,0,0,.17,3,3.54,3.54,0,0,0,1.18,1.28A3.09,3.09,0,0,0,494.55,211.75Z"/><path class="cls-2" d="M502.61,213.18V197.91h1.76v15.27Zm1.64-4.17,0-2.18h.36l5-5.1h2.17l-5.34,5.4h-.14Zm5.64,4.17-4.48-5.66,1.25-1.23,5.46,6.89Z"/><path class="cls-2" d="M519.43,197.2l-4.92,18.28H512.9l4.92-18.28Z"/><path class="cls-2" d="M522.65,217.45a3.91,3.91,0,0,1-.8-.07,2,2,0,0,1-.48-.14l.45-1.55a2.61,2.61,0,0,0,1.6,0,2.44,2.44,0,0,0,1.11-1.54l.33-.9-4.24-11.51h1.91l3.17,9.13h.11l3.17-9.13,1.92,0L526,214.85a5.06,5.06,0,0,1-.81,1.46,3.18,3.18,0,0,1-1.12.86A3.7,3.7,0,0,1,522.65,217.45Z"/><path class="cls-2" d="M537.61,213.42a5.35,5.35,0,0,1-2.85-.73,4.85,4.85,0,0,1-1.84-2.06,7,7,0,0,1-.65-3.08,7.11,7.11,0,0,1,.65-3.11,5,5,0,0,1,1.8-2.1,4.83,4.83,0,0,1,2.71-.76,5.39,5.39,0,0,1,1.77.3,4.52,4.52,0,0,1,1.59,1,4.67,4.67,0,0,1,1.14,1.77,7.58,7.58,0,0,1,.42,2.7v.74h-8.82v-1.52h7a3.76,3.76,0,0,0-.38-1.73,2.94,2.94,0,0,0-1.09-1.2,3.38,3.38,0,0,0-3.47.08,3.5,3.5,0,0,0-1.18,1.35,4,4,0,0,0-.41,1.77v1a4.87,4.87,0,0,0,.45,2.2,3.22,3.22,0,0,0,1.26,1.37,3.68,3.68,0,0,0,1.87.46,3.62,3.62,0,0,0,1.26-.2,2.67,2.67,0,0,0,1-.59,2.78,2.78,0,0,0,.64-1l1.7.48a3.71,3.71,0,0,1-.91,1.52,4.34,4.34,0,0,1-1.56,1A5.78,5.78,0,0,1,537.61,213.42Z"/><path class="cls-2" d="M548.41,213.45a4.74,4.74,0,0,1-2-.41,3.24,3.24,0,0,1-1.93-3.11,3,3,0,0,1,.39-1.6,2.67,2.67,0,0,1,1-1,5.42,5.42,0,0,1,1.43-.53c.53-.12,1.06-.21,1.59-.28.69-.09,1.26-.16,1.69-.2a2.52,2.52,0,0,0,1-.25.62.62,0,0,0,.3-.59v-.06a2.35,2.35,0,0,0-.6-1.72,2.48,2.48,0,0,0-1.82-.61,3.2,3.2,0,0,0-2,.55,3.31,3.31,0,0,0-1,1.18l-1.67-.59a4,4,0,0,1,1.2-1.63,4.37,4.37,0,0,1,1.64-.82,6.7,6.7,0,0,1,1.75-.24,7,7,0,0,1,1.28.13,4.38,4.38,0,0,1,1.39.53,3.17,3.17,0,0,1,1.12,1.22,4.5,4.5,0,0,1,.45,2.18v7.54H551.9v-1.55h-.09a3,3,0,0,1-.6.8,3.19,3.19,0,0,1-1.11.72A4.22,4.22,0,0,1,548.41,213.45Zm.27-1.58a3.52,3.52,0,0,0,1.76-.41,2.78,2.78,0,0,0,1.09-1.06,2.65,2.65,0,0,0,.37-1.36v-1.61a1,1,0,0,1-.49.24c-.25.07-.54.13-.86.19l-.95.13-.74.09a6.87,6.87,0,0,0-1.28.29,2.27,2.27,0,0,0-1,.59,1.5,1.5,0,0,0-.36,1.06,1.58,1.58,0,0,0,.69,1.39A3,3,0,0,0,548.68,211.87Z"/><path class="cls-2" d="M556.88,213.18V201.73h1.7v1.73h.12a2.76,2.76,0,0,1,1.13-1.38,3.39,3.39,0,0,1,1.85-.53h.49l.44,0v1.79l-.41-.07a4.65,4.65,0,0,0-.66-.05,3.12,3.12,0,0,0-1.49.35,2.58,2.58,0,0,0-1.41,2.34v7.24Z"/><path class="cls-2" d="M568.46,206.74a17.45,17.45,0,0,1-.74,5.19,16.12,16.12,0,0,1-2.1,4.36h-1.55a9.59,9.59,0,0,0,1-1.82,17.61,17.61,0,0,0,.82-2.36,22.53,22.53,0,0,0,.55-2.67,19.09,19.09,0,0,0,.2-2.7,19.42,19.42,0,0,0-.35-3.6,20.43,20.43,0,0,0-.92-3.39,10.41,10.41,0,0,0-1.3-2.55h1.55a16.06,16.06,0,0,1,2.1,4.35A17.45,17.45,0,0,1,568.46,206.74Z"/><path class="cls-2" d="M49.43,231.06v39.09H44.5V236h-.24l-9.94,6.34v-4.81l10.18-6.49Z"/><path class="cls-2" d="M60.17,262.14v-3.9l17.9-27.18H81v6H79L65.5,257.63v.31H89.6v4.2Zm19.17,8V231.06H84v39.09Z"/><path class="cls-2" d="M98.67,270.46a3.54,3.54,0,0,1-2.53-1,3.33,3.33,0,0,1,0-4.85,3.66,3.66,0,0,1,5,0,3.28,3.28,0,0,1,.57,4.14,3.68,3.68,0,0,1-1.29,1.25A3.55,3.55,0,0,1,98.67,270.46Z"/><path class="cls-2" d="M123.17,230.45a15,15,0,0,1,5,.91,12.24,12.24,0,0,1,4.57,3,14.76,14.76,0,0,1,3.32,5.66,27.47,27.47,0,0,1,1.26,9,37.37,37.37,0,0,1-1,9.25,20.86,20.86,0,0,1-2.94,6.81,13.08,13.08,0,0,1-4.65,4.2,13.21,13.21,0,0,1-6.18,1.43,13.7,13.7,0,0,1-6.09-1.31,11.55,11.55,0,0,1-4.38-3.65,12.24,12.24,0,0,1-2.18-5.43h4.86a8.37,8.37,0,0,0,2.61,4.44,7.47,7.47,0,0,0,5.18,1.75,8.61,8.61,0,0,0,7.45-3.95q2.73-4,2.73-11.17h-.31a12.46,12.46,0,0,1-2.65,2.77,11.88,11.88,0,0,1-3.4,1.79,12.38,12.38,0,0,1-4,.63,12.68,12.68,0,0,1-11.06-6.27,12.88,12.88,0,0,1-1.74-6.71,13.27,13.27,0,0,1,1.68-6.62,12.55,12.55,0,0,1,4.73-4.78A13.76,13.76,0,0,1,123.17,230.45Zm0,4.19a8.63,8.63,0,0,0-4.51,1.21,9.16,9.16,0,0,0-3.2,12.17,8.42,8.42,0,0,0,7.55,4.34,8.79,8.79,0,0,0,3.52-.71,9,9,0,0,0,2.85-2,9.18,9.18,0,0,0,1.92-2.85,8.12,8.12,0,0,0,.7-3.33,8.63,8.63,0,0,0-1.15-4.35,8.92,8.92,0,0,0-3.14-3.26A8.42,8.42,0,0,0,123.17,234.64Z"/><path class="cls-2" d="M145.6,240.45v-2.06a8.49,8.49,0,0,1,.92-3.93,7.16,7.16,0,0,1,2.71-2.86,9.22,9.22,0,0,1,8.66,0,7,7,0,0,1,2.64,2.86,8.6,8.6,0,0,1,.9,3.93v2.06a8.47,8.47,0,0,1-.91,3.92,7.06,7.06,0,0,1-2.66,2.87,8.08,8.08,0,0,1-4.31,1.07,8.21,8.21,0,0,1-4.35-1.07,7.13,7.13,0,0,1-2.69-2.87A8.47,8.47,0,0,1,145.6,240.45Zm1.51,29.7,28-39.09h4.53l-28,39.09Zm2.55-31.76v2.06a5.93,5.93,0,0,0,.87,3.18,3.28,3.28,0,0,0,3,1.4,3.22,3.22,0,0,0,3-1.4,6,6,0,0,0,.86-3.18v-2.06a6.13,6.13,0,0,0-.83-3.18,3.19,3.19,0,0,0-3-1.4,3.27,3.27,0,0,0-3,1.4A5.74,5.74,0,0,0,149.66,238.39Zm16.22,24.43v-2.06a8.36,8.36,0,0,1,.93-3.92,7.16,7.16,0,0,1,2.7-2.87,8.3,8.3,0,0,1,4.33-1.07,8.18,8.18,0,0,1,4.33,1.07,7,7,0,0,1,2.65,2.87,8.72,8.72,0,0,1,.89,3.92v2.06a8.6,8.6,0,0,1-.9,3.93,7.06,7.06,0,0,1-2.67,2.86,8.07,8.07,0,0,1-4.3,1.08,8.22,8.22,0,0,1-4.36-1.08,7.08,7.08,0,0,1-2.68-2.86A8.49,8.49,0,0,1,165.88,262.82Zm4.06-2.06v2.06a5.88,5.88,0,0,0,.87,3.18,3.29,3.29,0,0,0,3,1.41,3.19,3.19,0,0,0,2.95-1.41,5.88,5.88,0,0,0,.87-3.18v-2.06a6.09,6.09,0,0,0-.84-3.18,3.19,3.19,0,0,0-3-1.4,3.31,3.31,0,0,0-3,1.4A5.78,5.78,0,0,0,169.94,260.76Z"/><path class="cls-2" d="M247.8,270.15,266,235.56v-.3H245v-4.2h26.09v4.43L253,270.15Z"/><path class="cls-2" d="M280.89,270.15l18.22-34.59v-.3h-21v-4.2H304.2v4.43l-18.14,34.66Z"/><path class="cls-2" d="M308.1,270.46a3.53,3.53,0,0,1-2.53-1,3.33,3.33,0,0,1,0-4.85,3.66,3.66,0,0,1,5.05,0,3.32,3.32,0,0,1,.57,4.14,3.71,3.71,0,0,1-1.3,1.25A3.49,3.49,0,0,1,308.1,270.46Z"/><path class="cls-2" d="M332.12,270.69a15.8,15.8,0,0,1-5-.92,11.89,11.89,0,0,1-4.58-3,14.93,14.93,0,0,1-3.32-5.67,27.68,27.68,0,0,1-1.25-9,38.46,38.46,0,0,1,1-9.25,20.51,20.51,0,0,1,2.95-6.8,12.6,12.6,0,0,1,10.83-5.63,13.57,13.57,0,0,1,6.1,1.31,11.6,11.6,0,0,1,4.36,3.66,12.44,12.44,0,0,1,2.19,5.41h-4.85a8.72,8.72,0,0,0-2.62-4.44,7.5,7.5,0,0,0-5.18-1.75,8.56,8.56,0,0,0-7.44,4q-2.71,4-2.74,11.16h.32a11.54,11.54,0,0,1,2.66-2.78A11.94,11.94,0,0,1,329,245.2a12.24,12.24,0,0,1,4-.63,12.67,12.67,0,0,1,6.41,1.67,12.73,12.73,0,0,1,6.4,11.31,13.3,13.3,0,0,1-1.69,6.64,12.62,12.62,0,0,1-4.74,4.77A13.86,13.86,0,0,1,332.12,270.69Zm0-4.2a8.56,8.56,0,0,0,4.5-1.2,9.12,9.12,0,0,0,3.2-12.16,8.48,8.48,0,0,0-7.54-4.36,8.59,8.59,0,0,0-3.52.72,9.2,9.2,0,0,0-4.77,4.79,8.18,8.18,0,0,0-.7,3.35,8.72,8.72,0,0,0,1.14,4.35,9,9,0,0,0,3.14,3.27A8.44,8.44,0,0,0,332.12,266.49Z"/><path class="cls-2" d="M354,240.45v-2.06a8.38,8.38,0,0,1,.93-3.93,7.07,7.07,0,0,1,2.7-2.86,8.21,8.21,0,0,1,4.33-1.08,8.09,8.09,0,0,1,4.33,1.08,7,7,0,0,1,2.65,2.86,8.73,8.73,0,0,1,.89,3.93v2.06a8.59,8.59,0,0,1-.9,3.92,7.15,7.15,0,0,1-2.67,2.87,8.07,8.07,0,0,1-4.3,1.07,8.22,8.22,0,0,1-4.36-1.07,7.11,7.11,0,0,1-2.68-2.87A8.48,8.48,0,0,1,354,240.45Zm1.51,29.7,28-39.09H388l-28,39.09Zm2.55-31.76v2.06a5.93,5.93,0,0,0,.87,3.18,3.3,3.3,0,0,0,3,1.4,3.2,3.2,0,0,0,2.95-1.4,5.93,5.93,0,0,0,.86-3.18v-2.06a6,6,0,0,0-.83-3.18,3.17,3.17,0,0,0-3-1.4,3.29,3.29,0,0,0-3,1.4A5.74,5.74,0,0,0,358.05,238.39Zm16.23,24.43v-2.06a8.36,8.36,0,0,1,.92-3.92,7.18,7.18,0,0,1,2.71-2.87,9.3,9.3,0,0,1,8.66,0,7.08,7.08,0,0,1,2.64,2.87,8.59,8.59,0,0,1,.9,3.92v2.06a8.61,8.61,0,0,1-.91,3.93,7,7,0,0,1-2.66,2.86,8.11,8.11,0,0,1-4.31,1.08,8.21,8.21,0,0,1-4.35-1.08,7.11,7.11,0,0,1-2.69-2.86A8.48,8.48,0,0,1,374.28,262.82Zm4.05-2.06v2.06a5.81,5.81,0,0,0,.88,3.18,3.27,3.27,0,0,0,3,1.41,3.18,3.18,0,0,0,2.95-1.41,5.88,5.88,0,0,0,.87-3.18v-2.06a6.09,6.09,0,0,0-.84-3.18,3.18,3.18,0,0,0-3-1.4,3.29,3.29,0,0,0-3,1.4A5.71,5.71,0,0,0,378.33,260.76Z"/><path class="cls-2" d="M459.61,270.16l18.21-34.6v-.3h-21v-4.2h26.09v4.43l-18.13,34.67Z"/><path class="cls-2" d="M486.81,270.46a3.52,3.52,0,0,1-2.52-1,3.3,3.3,0,0,1,0-4.85,3.52,3.52,0,0,1,2.52-1,3.56,3.56,0,0,1,2.53,1,3.23,3.23,0,0,1,1.05,2.42,3.13,3.13,0,0,1-.49,1.72,3.6,3.6,0,0,1-1.29,1.25A3.55,3.55,0,0,1,486.81,270.46Z"/><path class="cls-2" d="M510.67,270.69a14.48,14.48,0,0,1-6.3-1.34,11.53,11.53,0,0,1-4.49-3.66,9.64,9.64,0,0,1-1.85-5.31h4.77a6.16,6.16,0,0,0,2.52,4.38,8.49,8.49,0,0,0,5.35,1.73,8.84,8.84,0,0,0,4.47-1.13,8.19,8.19,0,0,0,3.08-3.1,9.55,9.55,0,0,0,0-9A8.54,8.54,0,0,0,515,250a9.31,9.31,0,0,0-4.63-1.18,13.69,13.69,0,0,0-3.84.54,11.22,11.22,0,0,0-3.24,1.44l-4.62-.53,2.47-19.24h21.16v4.2h-17l-1.44,11.53h.24a10.86,10.86,0,0,1,3.14-1.59,12.41,12.41,0,0,1,3.94-.63,13,13,0,0,1,6.67,1.71,12.4,12.4,0,0,1,4.62,4.67,13.45,13.45,0,0,1,1.68,6.76,12.81,12.81,0,0,1-1.74,6.67,12.59,12.59,0,0,1-4.79,4.62A13.94,13.94,0,0,1,510.67,270.69Z"/><path class="cls-2" d="M532.47,240.45v-2.06a8.49,8.49,0,0,1,.92-3.93,7.16,7.16,0,0,1,2.71-2.86,9.22,9.22,0,0,1,8.66,0,6.92,6.92,0,0,1,2.64,2.86,8.6,8.6,0,0,1,.9,3.93v2.06a8.44,8.44,0,0,1-.91,3.92,7.06,7.06,0,0,1-2.66,2.87,8.09,8.09,0,0,1-4.31,1.08,8.21,8.21,0,0,1-4.35-1.08,7.13,7.13,0,0,1-2.69-2.87A8.44,8.44,0,0,1,532.47,240.45ZM534,270.16l28-39.1h4.53l-28,39.1Zm2.55-31.77v2.06a5.93,5.93,0,0,0,.87,3.18,3.28,3.28,0,0,0,3,1.4,3.21,3.21,0,0,0,3-1.4,6,6,0,0,0,.86-3.18v-2.06a6.13,6.13,0,0,0-.83-3.18,3.18,3.18,0,0,0-3-1.4,3.27,3.27,0,0,0-3,1.4A5.74,5.74,0,0,0,536.53,238.39Zm16.22,24.43v-2.06a8.36,8.36,0,0,1,.93-3.92,7.13,7.13,0,0,1,2.7-2.86,8.21,8.21,0,0,1,4.33-1.08A8.09,8.09,0,0,1,565,254a7,7,0,0,1,2.65,2.86,8.59,8.59,0,0,1,.89,3.92v2.06a8.6,8.6,0,0,1-.9,3.93,7,7,0,0,1-2.67,2.86,8,8,0,0,1-4.3,1.08,8.22,8.22,0,0,1-4.36-1.08,7.08,7.08,0,0,1-2.68-2.86A8.49,8.49,0,0,1,552.75,262.82Zm4.06-2.06v2.06a5.81,5.81,0,0,0,.88,3.18,3.27,3.27,0,0,0,3,1.41,3.19,3.19,0,0,0,2.95-1.41,5.88,5.88,0,0,0,.87-3.18v-2.06a6.09,6.09,0,0,0-.84-3.18,3.19,3.19,0,0,0-3-1.4,3.32,3.32,0,0,0-3,1.4A5.78,5.78,0,0,0,556.81,260.76Z"/></svg>