<svg id="圖層_1" data-name="圖層 1" xmlns="http://www.w3.org/2000/svg" viewBox="0 0 595.28 308.54"><defs><style>.cls-1{fill:'current';}.cls-2{fill:#25282C;}</style></defs><path class="cls-1" d="M243.38,109.68a8.42,8.42,0,0,0-.69-12.05l-79-69.09a9.83,9.83,0,0,0-12.84.15L71.66,101.31a8.38,8.38,0,0,0-.38,12l2,2.07c3.29,3.43,8.62,3.84,11.89.91l5.92-5.3v77.63a8.62,8.62,0,0,0,8.62,8.62h30.88a8.62,8.62,0,0,0,8.62-8.62V134.35h39.39v54.31c-.07,4.76,3.34,8.61,8.1,8.61h32.73a8.61,8.61,0,0,0,8.62-8.62V112.12l3.65,3.21c2,1.77,6.24.35,9.45-3.18Z"/><path class="cls-1" d="M500,26.23a3,3,0,0,0-.59.08L380.11,56.65a3,3,0,0,0-2.35,2.9V169.47h43.18V125.09h39v44.44h43.18V29.19A3,3,0,0,0,500,26.23Zm-91.15,84.25H394.11V95.74h14.74Zm0-26H394.11V69.7h14.74Zm26,26H420.06V95.74H434.8Zm0-26H420.06V69.7H434.8Zm26,26H446.05V95.74h14.74Zm0-26H446.05V69.7h14.74Zm26,26H472V95.71h14.73Zm0-26H472V69.7h14.73Z"/><path class="cls-1" d="M505.34,174.07H375.57a21.24,21.24,0,0,0-21.12,21.12,3,3,0,0,0,3,3H523.43a3,3,0,0,0,3-3A21.24,21.24,0,0,0,505.34,174.07Z"/><path class="cls-2" d="M396.43,223.68a15.37,15.37,0,0,1,5.31,1,13,13,0,0,1,4.85,3.29,16.57,16.57,0,0,1,3.52,6.26,31.49,31.49,0,0,1,1.33,9.94,43.67,43.67,0,0,1-1.08,10.22,23.65,23.65,0,0,1-3.13,7.52,14,14,0,0,1-4.93,4.64,13.5,13.5,0,0,1-6.55,1.58,13.93,13.93,0,0,1-6.46-1.45,12.43,12.43,0,0,1-4.64-4,13.87,13.87,0,0,1-2.31-6h5.14a9.48,9.48,0,0,0,2.78,4.91,7.76,7.76,0,0,0,5.49,1.93,9,9,0,0,0,7.9-4.37q2.89-4.36,2.9-12.34h-.34a13,13,0,0,1-2.8,3.06,12.6,12.6,0,0,1-3.61,2,12.75,12.75,0,0,1-4.22.69,13,13,0,0,1-6.8-1.84,13.7,13.7,0,0,1-4.93-5.09,14.68,14.68,0,0,1-1.85-7.41,15.19,15.19,0,0,1,1.78-7.32,13.66,13.66,0,0,1,5-5.27A14.13,14.13,0,0,1,396.43,223.68Zm0,4.64a8.75,8.75,0,0,0-4.78,1.33,9.66,9.66,0,0,0-3.36,3.56,10.69,10.69,0,0,0,0,9.88,9.26,9.26,0,0,0,3.27,3.5,9.25,9.25,0,0,0,8.47.51,9.73,9.73,0,0,0,3-2.17,10.52,10.52,0,0,0,2-3.14,9.49,9.49,0,0,0,.74-3.68,10,10,0,0,0-1.21-4.81,9.81,9.81,0,0,0-3.34-3.61A8.7,8.7,0,0,0,396.43,228.32Z"/><path class="cls-2" d="M421.9,267.88a3.78,3.78,0,1,1,3.8-3.79,3.6,3.6,0,0,1-.52,1.9,4,4,0,0,1-1.37,1.38A3.67,3.67,0,0,1,421.9,267.88Z"/><path class="cls-2" d="M447.38,268.14a16.17,16.17,0,0,1-5.32-1,12.68,12.68,0,0,1-4.85-3.27,16.76,16.76,0,0,1-3.52-6.27,31.49,31.49,0,0,1-1.33-9.94,43.61,43.61,0,0,1,1.08-10.22,23,23,0,0,1,3.12-7.52,14.06,14.06,0,0,1,4.94-4.64,13.53,13.53,0,0,1,6.55-1.58,14,14,0,0,1,6.47,1.46,12.52,12.52,0,0,1,4.63,4,14.23,14.23,0,0,1,2.31,6h-5.14a9.7,9.7,0,0,0-2.78-4.9,7.71,7.71,0,0,0-5.49-1.93,9,9,0,0,0-7.9,4.38q-2.86,4.37-2.9,12.32h.34a13.12,13.12,0,0,1,2.82-3.07,12.49,12.49,0,0,1,7.81-2.66,12.94,12.94,0,0,1,6.79,1.84,13.92,13.92,0,0,1,4.94,5.08,14.72,14.72,0,0,1,1.85,7.42A15.15,15.15,0,0,1,460,261a13.62,13.62,0,0,1-5,5.27A14.16,14.16,0,0,1,447.38,268.14Zm0-4.64a8.83,8.83,0,0,0,4.77-1.33,9.61,9.61,0,0,0,3.36-3.57,10.63,10.63,0,0,0,0-9.85,9.38,9.38,0,0,0-3.27-3.52,8.69,8.69,0,0,0-4.73-1.3,8.87,8.87,0,0,0-3.74.79,9.39,9.39,0,0,0-3,2.16,10.19,10.19,0,0,0-2,3.13,9.55,9.55,0,0,0-.74,3.7,9.91,9.91,0,0,0,1.22,4.81,9.79,9.79,0,0,0,3.33,3.61A8.7,8.7,0,0,0,447.38,263.5Z"/><path class="cls-2" d="M470.58,234.73v-2.28a9.53,9.53,0,0,1,1-4.33,7.78,7.78,0,0,1,2.86-3.16,9.47,9.47,0,0,1,9.19,0,7.63,7.63,0,0,1,2.8,3.16,9.78,9.78,0,0,1,.95,4.33v2.28a9.79,9.79,0,0,1-1,4.34,7.68,7.68,0,0,1-2.82,3.16,8.38,8.38,0,0,1-4.57,1.19,8.48,8.48,0,0,1-4.62-1.19,7.75,7.75,0,0,1-2.85-3.16A9.79,9.79,0,0,1,470.58,234.73Zm1.6,32.82,29.69-43.19h4.81L477,267.55Zm2.7-35.1v2.28a6.76,6.76,0,0,0,.92,3.51,3.42,3.42,0,0,0,3.21,1.55,3.32,3.32,0,0,0,3.13-1.55,6.76,6.76,0,0,0,.92-3.51v-2.28a7,7,0,0,0-.89-3.51,3.33,3.33,0,0,0-3.16-1.55,3.44,3.44,0,0,0-3.17,1.55A6.56,6.56,0,0,0,474.88,232.45Zm17.21,27v-2.28a9.5,9.5,0,0,1,1-4.33,7.8,7.8,0,0,1,2.86-3.17,9.47,9.47,0,0,1,9.19,0,7.59,7.59,0,0,1,2.8,3.17,9.75,9.75,0,0,1,.95,4.33v2.28a9.75,9.75,0,0,1-1,4.33,7.71,7.71,0,0,1-2.82,3.17,8.38,8.38,0,0,1-4.57,1.19A8.48,8.48,0,0,1,495.9,267a7.69,7.69,0,0,1-2.84-3.17A9.62,9.62,0,0,1,492.09,259.45Zm4.3-2.28v2.28a6.67,6.67,0,0,0,.93,3.51,3.42,3.42,0,0,0,3.2,1.55,3.34,3.34,0,0,0,3.13-1.55,6.67,6.67,0,0,0,.92-3.51v-2.28a6.93,6.93,0,0,0-.88-3.51,3.35,3.35,0,0,0-3.17-1.55,3.45,3.45,0,0,0-3.17,1.55A6.51,6.51,0,0,0,496.39,257.17Z"/><path class="cls-2" d="M97.69,222.73a15.6,15.6,0,0,1,5.31,1,13,13,0,0,1,4.85,3.29,16.57,16.57,0,0,1,3.52,6.26,31.49,31.49,0,0,1,1.33,9.94,43.67,43.67,0,0,1-1.08,10.22A23.88,23.88,0,0,1,108.5,261a14.06,14.06,0,0,1-4.94,4.64A13.5,13.5,0,0,1,97,267.19a13.93,13.93,0,0,1-6.46-1.45,12.43,12.43,0,0,1-4.64-4,14,14,0,0,1-2.31-6h5.15a9.39,9.39,0,0,0,2.77,4.91A7.71,7.71,0,0,0,97,262.55a9,9,0,0,0,7.9-4.37q2.9-4.37,2.9-12.33h-.34a13,13,0,0,1-2.8,3.05,12.47,12.47,0,0,1-3.61,2,12.75,12.75,0,0,1-4.22.69,13,13,0,0,1-6.8-1.84,13.7,13.7,0,0,1-4.93-5.09,14.68,14.68,0,0,1-1.85-7.41A15.3,15.3,0,0,1,85,229.92a13.74,13.74,0,0,1,5-5.27A14.13,14.13,0,0,1,97.69,222.73Zm0,4.64a8.78,8.78,0,0,0-4.78,1.33,9.63,9.63,0,0,0-3.35,3.56,10.16,10.16,0,0,0-1.24,5,10,10,0,0,0,1.2,4.9,9.26,9.26,0,0,0,3.26,3.51,9.29,9.29,0,0,0,8.47.5,9.73,9.73,0,0,0,3-2.17,10.52,10.52,0,0,0,2-3.14,9.31,9.31,0,0,0,.74-3.68,10,10,0,0,0-4.54-8.42A8.73,8.73,0,0,0,97.69,227.37Z"/><path class="cls-2" d="M136.15,223.41V266.6h-5.23V228.89h-.25l-10.54,7v-5.31l10.79-7.17Z"/><path class="cls-2" d="M149.74,266.94a3.79,3.79,0,1,1,3.79-3.8A3.6,3.6,0,0,1,153,265a4,4,0,0,1-1.37,1.38A3.64,3.64,0,0,1,149.74,266.94Z"/><path class="cls-2" d="M161.38,257.74v-4.3l19-30h3.12v6.66h-2.11L167,252.76v.34h25.56v4.64Zm20.33,8.86V223.41h5V266.6Z"/><path class="cls-2" d="M201,233.78V231.5a9.54,9.54,0,0,1,1-4.33,7.71,7.71,0,0,1,2.86-3.16,9.47,9.47,0,0,1,9.19,0,7.63,7.63,0,0,1,2.8,3.16,9.78,9.78,0,0,1,.95,4.33v2.28a9.79,9.79,0,0,1-1,4.34,7.68,7.68,0,0,1-2.82,3.16,8.38,8.38,0,0,1-4.57,1.19,8.48,8.48,0,0,1-4.62-1.19,7.75,7.75,0,0,1-2.85-3.16A9.8,9.8,0,0,1,201,233.78Zm1.61,32.82,29.69-43.19h4.81L207.44,266.6Zm2.7-35.1v2.28a6.76,6.76,0,0,0,.92,3.51,3.42,3.42,0,0,0,3.21,1.55,3.32,3.32,0,0,0,3.13-1.55,6.76,6.76,0,0,0,.92-3.51V231.5a7,7,0,0,0-.89-3.51,3.33,3.33,0,0,0-3.16-1.55,3.44,3.44,0,0,0-3.17,1.55A6.56,6.56,0,0,0,205.33,231.5Zm17.21,27v-2.28a9.5,9.5,0,0,1,1-4.33,7.8,7.8,0,0,1,2.86-3.17,9.47,9.47,0,0,1,9.19,0,7.59,7.59,0,0,1,2.8,3.17,9.75,9.75,0,0,1,.95,4.33v2.28a9.75,9.75,0,0,1-1,4.33,7.71,7.71,0,0,1-2.82,3.17,8.38,8.38,0,0,1-4.57,1.19,8.48,8.48,0,0,1-4.62-1.19,7.69,7.69,0,0,1-2.84-3.17A9.62,9.62,0,0,1,222.54,258.5Zm4.3-2.28v2.28a6.67,6.67,0,0,0,.93,3.51,3.42,3.42,0,0,0,3.2,1.55A3.34,3.34,0,0,0,234.1,262a6.76,6.76,0,0,0,.92-3.51v-2.28a6.84,6.84,0,0,0-.89-3.51,3.33,3.33,0,0,0-3.16-1.55,3.45,3.45,0,0,0-3.17,1.55A6.51,6.51,0,0,0,226.84,256.22Z"/></svg>