<svg id="圖層_1" data-name="圖層 1" xmlns="http://www.w3.org/2000/svg" viewBox="0 0 595.28 323.6"><defs><style>.cls-1{fill:'current';}.cls-2{fill:'current';}</style></defs><path class="cls-1" d="M243.38,124.64a8.42,8.42,0,0,0-.69-12l-79-69.1a9.86,9.86,0,0,0-12.84.15L71.66,116.27a8.38,8.38,0,0,0-.38,12l2,2.07c3.29,3.43,8.62,3.83,11.89.91L91.08,126v77.63a8.61,8.61,0,0,0,8.62,8.62h30.88a8.61,8.61,0,0,0,8.62-8.62V149.3h39.39v54.31c-.07,4.76,3.34,8.62,8.1,8.62h32.73a8.62,8.62,0,0,0,8.62-8.62V127.08l3.65,3.2c2,1.77,6.24.35,9.45-3.17Z"/><path class="cls-1" d="M500,41.19a3,3,0,0,0-.59.07L380.11,71.61a3,3,0,0,0-2.35,2.9V184.43h43.18V140h39v44.45h43.18V44.14A3,3,0,0,0,500,41.19Zm-91.15,84.24H394.11V110.7h14.74Zm0-26H394.11V84.66h14.74Zm26,26H420.06V110.7H434.8Zm0-26H420.06V84.66H434.8Zm26,26H446.05V110.7h14.74Zm0-26H446.05V84.66h14.74Zm26,26H472V110.67h14.73Zm0-26H472V84.66h14.73Z"/><path class="cls-1" d="M505.34,189H375.57a21.24,21.24,0,0,0-21.12,21.12,3,3,0,0,0,3,3H523.43a3,3,0,0,0,3-3A21.23,21.23,0,0,0,505.34,189Z"/><path class="cls-2" d="M396.51,283.09a17.87,17.87,0,0,1-7.67-1.55,12.4,12.4,0,0,1-5.17-4.28,10.72,10.72,0,0,1-1.84-6.23,11.6,11.6,0,0,1,1.08-5.07,11.06,11.06,0,0,1,3-3.9,9.14,9.14,0,0,1,4.27-2v-.25a8.32,8.32,0,0,1-4.93-3.49,11.21,11.21,0,0,1-.15-12,11.73,11.73,0,0,1,4.65-4.09,14.78,14.78,0,0,1,6.76-1.5,14.63,14.63,0,0,1,6.71,1.5,11.93,11.93,0,0,1,4.65,4.09,11,11,0,0,1-.15,12,8.36,8.36,0,0,1-4.88,3.49v.25a8.89,8.89,0,0,1,4.21,2,11.42,11.42,0,0,1,3,3.9,11.92,11.92,0,0,1,1.14,5.07,11,11,0,0,1-1.89,6.23,12.52,12.52,0,0,1-5.17,4.28A17.64,17.64,0,0,1,396.51,283.09Zm0-4.64a12.25,12.25,0,0,0,5.06-.95,7.5,7.5,0,0,0,3.29-2.67,7.25,7.25,0,0,0,1.18-4.05,7.77,7.77,0,0,0-1.26-4.33,8.63,8.63,0,0,0-3.39-2.95,10.68,10.68,0,0,0-4.88-1.07,10.92,10.92,0,0,0-4.93,1.07,8.49,8.49,0,0,0-3.39,2.95,7.58,7.58,0,0,0-1.21,4.33,7,7,0,0,0,1.13,4.05,7.37,7.37,0,0,0,3.3,2.67A12.41,12.41,0,0,0,396.51,278.45Zm0-20.5a8.83,8.83,0,0,0,4.12-.92,7.13,7.13,0,0,0,2.84-2.6,7.33,7.33,0,0,0,1-3.9,7.19,7.19,0,0,0-1-3.83,6.8,6.8,0,0,0-2.8-2.53,9.22,9.22,0,0,0-4.18-.89,9.42,9.42,0,0,0-4.24.89,6.62,6.62,0,0,0-2.8,2.53,7,7,0,0,0-1,3.83,7.13,7.13,0,0,0,1,3.9,7,7,0,0,0,2.83,2.6A9,9,0,0,0,396.51,258Z"/><path class="cls-2" d="M421.65,282.84a3.8,3.8,0,1,1,3.28-1.9,3.94,3.94,0,0,1-1.37,1.38A3.58,3.58,0,0,1,421.65,282.84Z"/><path class="cls-2" d="M447.12,283.09a15.85,15.85,0,0,1-5.31-1A12.7,12.7,0,0,1,437,278.8a16.65,16.65,0,0,1-3.52-6.26,31.55,31.55,0,0,1-1.33-10,44.15,44.15,0,0,1,1.07-10.21,23.11,23.11,0,0,1,3.13-7.52,14,14,0,0,1,4.94-4.64,13.39,13.39,0,0,1,6.55-1.58,13.93,13.93,0,0,1,6.46,1.45,12.47,12.47,0,0,1,4.63,4,14.06,14.06,0,0,1,2.32,6h-5.14a9.6,9.6,0,0,0-2.79-4.9,7.69,7.69,0,0,0-5.48-1.93,9,9,0,0,0-7.9,4.37Q437,252,437,260h.34a12.56,12.56,0,0,1,6.43-5,12.43,12.43,0,0,1,4.2-.7,13,13,0,0,1,6.79,1.85,13.74,13.74,0,0,1,4.93,5.08,14.61,14.61,0,0,1,1.86,7.41,15.23,15.23,0,0,1-1.79,7.33,13.63,13.63,0,0,1-5,5.27A14.1,14.1,0,0,1,447.12,283.09Zm0-4.64a8.75,8.75,0,0,0,4.78-1.33,9.55,9.55,0,0,0,3.35-3.56,10.05,10.05,0,0,0,1.24-5,10.16,10.16,0,0,0-1.19-4.88,9.36,9.36,0,0,0-3.27-3.51,8.75,8.75,0,0,0-4.74-1.31,9,9,0,0,0-3.73.79,9.87,9.87,0,0,0-3,2.16,10.4,10.4,0,0,0-2,3.14,9.47,9.47,0,0,0-.74,3.7,10,10,0,0,0,1.21,4.81,9.71,9.71,0,0,0,3.34,3.6A8.59,8.59,0,0,0,447.12,278.45Z"/><path class="cls-2" d="M470.32,249.69v-2.28a9.63,9.63,0,0,1,1-4.33,7.83,7.83,0,0,1,2.87-3.17,9.47,9.47,0,0,1,9.19,0,7.66,7.66,0,0,1,2.8,3.17,9.88,9.88,0,0,1,.95,4.33v2.28a9.75,9.75,0,0,1-1,4.33,7.58,7.58,0,0,1-2.83,3.16,8.24,8.24,0,0,1-4.56,1.2,8.4,8.4,0,0,1-4.62-1.2,7.69,7.69,0,0,1-2.85-3.16A9.76,9.76,0,0,1,470.32,249.69Zm1.6,32.81,29.7-43.19h4.81l-29.7,43.19Zm2.7-35.09v2.28a6.7,6.7,0,0,0,.93,3.51,3.44,3.44,0,0,0,3.21,1.55,3.35,3.35,0,0,0,3.13-1.55,6.79,6.79,0,0,0,.92-3.51v-2.28a6.94,6.94,0,0,0-.89-3.51,3.31,3.31,0,0,0-3.16-1.55,3.44,3.44,0,0,0-3.18,1.55A6.51,6.51,0,0,0,474.62,247.41Zm17.21,27v-2.27a9.67,9.67,0,0,1,1-4.34,7.8,7.8,0,0,1,2.87-3.16,9.47,9.47,0,0,1,9.19,0,7.63,7.63,0,0,1,2.8,3.16,9.93,9.93,0,0,1,.95,4.34v2.27a9.79,9.79,0,0,1-1,4.34,7.64,7.64,0,0,1-2.83,3.16,8.24,8.24,0,0,1-4.56,1.19,8.4,8.4,0,0,1-4.62-1.19,7.75,7.75,0,0,1-2.85-3.16A9.8,9.8,0,0,1,491.83,274.4Zm4.31-2.27v2.27a6.73,6.73,0,0,0,.92,3.52,3.44,3.44,0,0,0,3.21,1.55,3.34,3.34,0,0,0,3.13-1.55,6.82,6.82,0,0,0,.92-3.52v-2.27a6.94,6.94,0,0,0-.89-3.51,3.31,3.31,0,0,0-3.16-1.55,3.44,3.44,0,0,0-3.18,1.55A6.59,6.59,0,0,0,496.14,272.13Z"/><path class="cls-2" d="M97.69,237.69a15.37,15.37,0,0,1,5.31,1,13,13,0,0,1,4.85,3.29,16.53,16.53,0,0,1,3.52,6.25,31.55,31.55,0,0,1,1.33,9.95,43.58,43.58,0,0,1-1.08,10.21,23.78,23.78,0,0,1-3.12,7.52,14,14,0,0,1-4.94,4.64A13.39,13.39,0,0,1,97,282.14a14.06,14.06,0,0,1-6.46-1.44,12.46,12.46,0,0,1-4.64-4,13.91,13.91,0,0,1-2.31-6h5.15a9.36,9.36,0,0,0,2.77,4.9A7.71,7.71,0,0,0,97,277.5a9,9,0,0,0,7.9-4.36q2.9-4.36,2.9-12.34h-.34a13.19,13.19,0,0,1-2.8,3.06,12.21,12.21,0,0,1-3.61,2,12.5,12.5,0,0,1-4.22.7,13,13,0,0,1-6.8-1.85,13.67,13.67,0,0,1-4.93-5.08,14.71,14.71,0,0,1-1.85-7.41A15.3,15.3,0,0,1,85,244.88a13.6,13.6,0,0,1,5-5.27A14.13,14.13,0,0,1,97.69,237.69Zm0,4.64a8.78,8.78,0,0,0-4.78,1.33,9.55,9.55,0,0,0-3.35,3.56,10.61,10.61,0,0,0,0,9.88,9.16,9.16,0,0,0,3.26,3.5,8.74,8.74,0,0,0,4.74,1.3,9,9,0,0,0,3.73-.79,9.6,9.6,0,0,0,3-2.18,10.4,10.4,0,0,0,2-3.14,9.27,9.27,0,0,0,.74-3.68,9.93,9.93,0,0,0-1.21-4.81,9.76,9.76,0,0,0-3.33-3.6A8.65,8.65,0,0,0,97.69,242.33Z"/><path class="cls-2" d="M136.15,238.36v43.19h-5.23v-37.7h-.25l-10.54,7v-5.32l10.79-7.17Z"/><path class="cls-2" d="M149.74,281.89a3.78,3.78,0,1,1,3.79-3.8A3.57,3.57,0,0,1,153,280a3.86,3.86,0,0,1-1.37,1.38A3.55,3.55,0,0,1,149.74,281.89Z"/><path class="cls-2" d="M161.38,272.7v-4.31l19-30h3.12V245h-2.11L167,267.72v.34h25.56v4.64Zm20.33,8.85V238.36h5v43.19Z"/><path class="cls-2" d="M201,248.74v-2.28a9.51,9.51,0,0,1,1-4.33,7.73,7.73,0,0,1,2.86-3.17,9.47,9.47,0,0,1,9.19,0,7.66,7.66,0,0,1,2.8,3.17,9.75,9.75,0,0,1,.95,4.33v2.28a9.75,9.75,0,0,1-1,4.33,7.71,7.71,0,0,1-2.82,3.17,8.38,8.38,0,0,1-4.57,1.19,8.48,8.48,0,0,1-4.62-1.19,7.78,7.78,0,0,1-2.85-3.17A9.76,9.76,0,0,1,201,248.74Zm1.61,32.81,29.69-43.19h4.81l-29.69,43.19Zm2.7-35.09v2.28a6.76,6.76,0,0,0,.92,3.51,3.44,3.44,0,0,0,3.21,1.55,3.34,3.34,0,0,0,3.13-1.55,6.76,6.76,0,0,0,.92-3.51v-2.28a6.94,6.94,0,0,0-.89-3.51,3.33,3.33,0,0,0-3.16-1.55,3.44,3.44,0,0,0-3.17,1.55A6.51,6.51,0,0,0,205.33,246.46Zm17.21,27v-2.28a9.54,9.54,0,0,1,1-4.34,7.84,7.84,0,0,1,2.86-3.16,9.47,9.47,0,0,1,9.19,0,7.62,7.62,0,0,1,2.8,3.16,9.79,9.79,0,0,1,.95,4.34v2.28a9.78,9.78,0,0,1-1,4.33,7.68,7.68,0,0,1-2.82,3.16,8.29,8.29,0,0,1-4.57,1.19,8.4,8.4,0,0,1-4.62-1.19,7.66,7.66,0,0,1-2.84-3.16A9.65,9.65,0,0,1,222.54,273.46Zm4.3-2.28v2.28a6.72,6.72,0,0,0,.93,3.51,3.42,3.42,0,0,0,3.2,1.55A3.34,3.34,0,0,0,234.1,277a6.81,6.81,0,0,0,.92-3.51v-2.28a6.84,6.84,0,0,0-.89-3.51,3.31,3.31,0,0,0-3.16-1.55,3.43,3.43,0,0,0-3.17,1.55A6.51,6.51,0,0,0,226.84,271.18Z"/></svg>